<?xml version="1.0" encoding="utf-8"?>
<!DOCTYPE svg PUBLIC "-//W3C//DTD SVG 20010904//EN" "http://www.w3.org/TR/2001/REC-SVG-20010904/DTD/svg10.dtd">
<svg version="1.0" xmlns="http://www.w3.org/2000/svg" width="2002pt" height="2002pt" viewBox="0 0 2002 2002" style="" preserveAspectRatio="xMidYMid meet">
<g fill="#386BF3FF">
<path d="M 343.000 639.174 C 328.906 640.111 324.441 640.693 322.217 641.884 C 321.188 642.435 319.256 643.067 317.923 643.289 C 314.878 643.796 313.083 644.487 305.000 648.260 C 290.293 655.126 276.231 666.916 266.527 680.514 C 261.706 687.270 253.057 704.409 252.496 708.317 C 252.323 709.518 251.275 714.586 250.166 719.580 C 247.444 731.834 247.940 748.789 251.508 765.500 C 252.917 772.100 254.296 778.558 254.573 779.852 C 254.850 781.146 255.769 785.193 256.616 788.846 C 257.464 792.499 258.338 796.615 258.560 797.994 C 258.781 799.372 259.612 803.425 260.406 807.000 C 262.700 817.328 267.857 846.485 269.515 858.500 C 272.383 879.276 273.978 891.509 274.534 897.000 C 274.841 900.025 275.495 906.100 275.988 910.500 C 276.480 914.900 277.191 923.450 277.568 929.500 C 277.944 935.550 278.389 941.625 278.556 943.000 C 278.723 944.375 279.144 952.025 279.491 960.000 C 279.838 967.975 280.275 976.413 280.462 978.750 C 280.658 981.202 280.369 983.000 279.778 983.000 C 279.126 983.000 279.159 983.486 279.869 984.342 C 281.076 985.797 280.774 1055.155 279.482 1073.000 C 279.104 1078.225 278.693 1084.525 278.568 1087.000 C 278.444 1089.475 278.000 1092.266 277.582 1093.202 C 277.165 1094.138 277.080 1095.320 277.394 1095.829 C 278.084 1096.945 276.079 1117.525 272.019 1151.000 C 270.856 1160.586 269.339 1170.880 267.967 1178.500 C 267.372 1181.800 266.464 1187.650 265.949 1191.500 C 264.615 1201.467 259.423 1227.336 255.815 1242.000 C 254.123 1248.875 252.587 1255.693 252.401 1257.150 C 252.215 1258.608 251.114 1263.108 249.954 1267.150 C 248.795 1271.193 247.272 1276.975 246.571 1280.000 C 244.835 1287.481 241.012 1301.171 240.367 1302.216 C 240.077 1302.684 239.634 1304.732 239.382 1306.768 C 239.129 1308.803 238.289 1311.436 237.515 1312.618 C 236.740 1313.800 236.122 1315.607 236.140 1316.633 C 236.174 1318.539 233.487 1326.960 231.741 1330.419 C 231.208 1331.474 230.559 1333.724 230.297 1335.419 C 230.036 1337.113 228.328 1342.550 226.502 1347.500 C 224.675 1352.450 221.918 1360.280 220.374 1364.900 C 218.455 1370.643 216.997 1373.450 215.763 1373.772 C 214.333 1374.146 214.201 1374.538 215.130 1375.656 C 215.989 1376.692 216.012 1377.659 215.217 1379.284 C 214.620 1380.503 213.559 1383.300 212.858 1385.500 C 212.156 1387.700 211.292 1389.950 210.937 1390.500 C 210.581 1391.050 209.677 1393.638 208.927 1396.250 C 208.177 1398.863 207.212 1401.000 206.782 1401.000 C 206.352 1401.000 205.985 1401.563 205.966 1402.250 C 205.947 1402.938 205.063 1405.300 204.000 1407.500 C 202.937 1409.700 202.053 1412.049 202.034 1412.720 C 202.003 1413.846 200.658 1417.032 194.532 1430.500 C 193.281 1433.250 191.007 1438.425 189.479 1442.000 C 182.696 1457.864 172.836 1478.351 171.750 1478.833 C 171.338 1479.017 171.000 1480.029 171.000 1481.083 C 171.000 1482.138 170.550 1483.000 170.000 1483.000 C 169.450 1483.000 169.000 1483.634 169.000 1484.409 C 169.000 1487.170 158.894 1506.052 157.784 1505.366 C 157.126 1504.960 156.977 1505.154 157.409 1505.852 C 157.803 1506.491 157.309 1508.248 156.309 1509.757 C 155.309 1511.266 153.598 1514.300 152.505 1516.500 C 151.413 1518.700 150.065 1520.831 149.510 1521.235 C 148.845 1521.719 148.841 1521.980 149.500 1522.000 C 150.068 1522.017 150.018 1522.348 149.383 1522.765 C 148.769 1523.169 146.557 1526.200 144.469 1529.500 C 142.381 1532.800 140.374 1535.725 140.011 1536.000 C 139.647 1536.275 138.499 1537.963 137.459 1539.750 C 136.419 1541.538 135.216 1543.000 134.784 1543.000 C 134.353 1543.000 134.000 1543.675 134.000 1544.500 C 134.000 1545.325 133.633 1546.000 133.184 1546.000 C 132.735 1546.000 131.306 1547.913 130.009 1550.250 C 128.711 1552.588 127.367 1554.725 127.023 1555.000 C 125.812 1555.967 120.000 1565.111 120.000 1566.050 C 120.000 1566.573 119.559 1567.000 119.019 1567.000 C 118.480 1567.000 117.756 1568.125 117.411 1569.500 C 117.066 1570.875 116.382 1572.000 115.892 1572.000 C 115.401 1572.000 115.000 1572.689 115.000 1573.531 C 115.000 1574.374 114.325 1575.322 113.500 1575.638 C 112.675 1575.955 112.000 1576.841 112.000 1577.607 C 112.000 1578.373 111.475 1579.000 110.833 1579.000 C 110.192 1579.000 109.940 1579.273 110.273 1579.606 C 110.607 1579.940 110.119 1581.035 109.190 1582.039 C 108.260 1583.043 106.600 1585.583 105.500 1587.683 C 104.400 1589.782 102.713 1592.372 101.750 1593.439 C 100.145 1595.216 99.613 1596.577 100.250 1597.273 C 100.388 1597.424 99.488 1598.634 98.250 1599.962 C 97.013 1601.290 96.000 1602.967 96.000 1603.689 C 96.000 1604.410 95.475 1605.000 94.833 1605.000 C 94.192 1605.000 93.940 1605.273 94.273 1605.606 C 94.607 1605.940 94.022 1607.133 92.974 1608.258 C 91.927 1609.383 91.305 1610.685 91.594 1611.151 C 91.882 1611.618 91.703 1612.000 91.195 1612.000 C 90.687 1612.000 89.512 1613.990 88.583 1616.421 C 87.655 1618.853 86.217 1621.405 85.390 1622.092 C 84.562 1622.779 83.244 1624.727 82.462 1626.420 C 81.679 1628.114 79.185 1632.425 76.919 1636.000 C 71.785 1644.101 67.751 1651.868 64.974 1659.000 C 63.796 1662.025 62.859 1664.610 62.892 1664.745 C 62.925 1664.880 62.688 1666.309 62.366 1667.921 C 61.974 1669.881 61.319 1670.676 60.390 1670.319 C 59.625 1670.026 59.000 1670.236 59.000 1670.786 C 59.000 1671.336 59.775 1672.083 60.722 1672.447 C 61.996 1672.936 62.121 1673.307 61.201 1673.876 C 59.722 1674.790 58.727 1704.713 60.147 1705.591 C 60.634 1705.892 60.803 1706.510 60.522 1706.964 C 59.600 1708.457 64.747 1726.585 68.241 1734.146 C 75.228 1749.268 86.904 1763.923 99.000 1772.751 C 105.533 1777.519 123.562 1787.105 124.408 1786.259 C 124.733 1785.933 125.000 1786.218 125.000 1786.892 C 125.000 1787.566 125.368 1787.891 125.817 1787.613 C 126.267 1787.335 128.629 1787.816 131.067 1788.682 C 133.505 1789.548 136.850 1790.396 138.500 1790.567 C 140.150 1790.738 142.625 1791.178 144.000 1791.544 C 147.426 1792.456 166.375 1792.533 172.500 1791.660 C 175.250 1791.268 179.415 1790.686 181.756 1790.368 C 184.097 1790.049 186.261 1789.386 186.565 1788.894 C 186.869 1788.402 187.998 1788.000 189.073 1788.000 C 190.148 1788.000 191.809 1787.611 192.764 1787.135 C 193.719 1786.659 197.200 1785.046 200.500 1783.549 C 208.252 1780.034 215.137 1775.738 222.000 1770.136 C 227.679 1765.499 238.934 1754.020 238.976 1752.821 C 238.989 1752.448 239.563 1751.548 240.250 1750.821 C 246.912 1743.779 282.670 1690.612 300.585 1661.114 C 311.870 1642.533 313.008 1640.582 313.635 1638.750 C 313.964 1637.788 314.631 1637.000 315.117 1637.000 C 315.602 1637.000 316.000 1636.477 316.000 1635.838 C 316.000 1633.700 325.191 1618.968 327.194 1617.896 C 328.282 1617.314 328.945 1616.611 328.668 1616.334 C 328.126 1615.792 330.417 1612.691 333.250 1610.135 C 334.213 1609.266 335.000 1608.080 335.000 1607.499 C 335.000 1606.917 335.900 1605.793 337.000 1605.000 C 338.100 1604.207 339.000 1603.176 339.000 1602.708 C 339.000 1602.240 339.563 1601.294 340.250 1600.605 C 340.938 1599.917 342.850 1597.632 344.500 1595.527 C 346.150 1593.423 348.372 1590.868 349.439 1589.851 C 350.505 1588.833 351.044 1588.000 350.637 1588.000 C 350.230 1588.000 351.045 1586.936 352.448 1585.635 C 353.852 1584.335 355.000 1582.970 355.000 1582.602 C 355.000 1582.234 356.350 1580.613 358.000 1579.000 C 359.650 1577.387 361.000 1575.709 361.000 1575.271 C 361.000 1574.833 362.125 1573.630 363.500 1572.597 C 364.875 1571.565 366.000 1570.348 366.000 1569.893 C 366.000 1569.439 367.463 1567.559 369.250 1565.717 C 371.038 1563.874 374.075 1560.473 376.000 1558.159 C 383.697 1548.907 401.640 1529.797 420.082 1511.211 C 436.251 1494.916 451.886 1480.082 463.000 1470.494 C 468.877 1465.424 471.452 1463.080 477.009 1457.741 C 478.938 1455.887 481.256 1453.949 482.159 1453.435 C 483.062 1452.921 486.139 1450.475 488.996 1448.000 C 498.889 1439.431 502.517 1436.416 506.214 1433.691 C 508.256 1432.186 511.406 1429.574 513.214 1427.887 C 515.021 1426.200 517.625 1424.078 519.000 1423.172 C 523.736 1420.049 548.505 1401.548 550.990 1399.276 C 552.359 1398.024 553.784 1397.000 554.157 1397.000 C 554.529 1397.000 560.158 1393.274 566.667 1388.721 C 587.563 1374.100 601.002 1365.239 608.750 1360.972 C 611.088 1359.685 613.000 1358.295 613.000 1357.883 C 613.000 1357.472 614.013 1356.816 615.250 1356.426 C 616.488 1356.036 620.048 1354.093 623.163 1352.109 C 630.182 1347.636 633.615 1345.613 642.464 1340.731 C 646.295 1338.618 649.895 1336.516 650.464 1336.060 C 651.607 1335.146 668.087 1326.363 677.500 1321.652 C 680.800 1320.001 683.758 1318.268 684.073 1317.801 C 684.389 1317.335 685.580 1316.773 686.721 1316.554 C 687.862 1316.334 690.529 1315.079 692.648 1313.766 C 694.766 1312.452 698.075 1310.742 700.000 1309.966 C 701.925 1309.189 706.845 1306.854 710.934 1304.777 C 715.023 1302.700 718.906 1301.000 719.562 1301.000 C 720.218 1301.000 721.311 1300.330 721.991 1299.511 C 722.671 1298.692 723.589 1298.246 724.033 1298.520 C 724.476 1298.794 725.518 1298.339 726.348 1297.509 C 727.178 1296.679 728.345 1296.000 728.942 1296.000 C 729.539 1296.000 730.883 1295.465 731.930 1294.812 C 733.732 1293.686 733.606 1293.303 729.549 1287.562 C 709.351 1258.976 692.716 1220.985 685.562 1187.102 C 680.802 1164.559 679.692 1153.174 679.593 1125.891 C 679.512 1103.488 679.312 1100.374 678.000 1101.017 C 677.175 1101.421 674.545 1102.707 672.155 1103.876 C 669.765 1105.044 667.454 1105.780 667.018 1105.511 C 666.583 1105.242 665.671 1105.692 664.991 1106.511 C 664.311 1107.330 663.277 1108.000 662.693 1108.000 C 661.637 1108.000 657.939 1109.618 646.500 1115.089 C 643.200 1116.667 639.479 1118.109 638.231 1118.293 C 636.983 1118.478 636.271 1118.937 636.648 1119.314 C 637.025 1119.691 636.715 1120.000 635.960 1120.000 C 634.173 1120.000 582.275 1145.747 581.485 1147.025 C 581.153 1147.561 580.046 1148.000 579.024 1148.000 C 578.003 1148.000 577.017 1148.373 576.833 1148.830 C 576.650 1149.286 574.025 1150.862 571.000 1152.331 C 567.975 1153.800 563.250 1156.364 560.500 1158.030 C 557.750 1159.695 553.700 1161.958 551.500 1163.057 C 547.358 1165.128 540.722 1169.042 537.855 1171.106 C 536.950 1171.758 535.825 1172.269 535.355 1172.243 C 534.885 1172.216 532.724 1173.501 530.553 1175.097 C 528.382 1176.694 526.132 1178.013 525.553 1178.028 C 524.974 1178.043 522.732 1179.393 520.572 1181.028 C 518.411 1182.663 516.215 1184.000 515.691 1184.000 C 515.167 1184.000 512.631 1185.514 510.055 1187.365 C 507.479 1189.216 503.773 1191.488 501.821 1192.415 C 499.868 1193.342 497.379 1194.929 496.291 1195.944 C 495.202 1196.958 492.779 1198.567 490.906 1199.520 C 489.033 1200.472 484.027 1203.670 479.782 1206.626 C 475.537 1209.582 471.755 1212.000 471.377 1212.000 C 470.998 1212.000 469.191 1213.142 467.361 1214.538 C 465.531 1215.934 464.229 1216.497 464.468 1215.788 C 464.708 1215.080 465.156 1212.760 465.465 1210.633 C 465.774 1208.507 466.279 1206.358 466.587 1205.859 C 466.895 1205.360 467.299 1202.446 467.484 1199.383 C 467.669 1196.320 468.287 1191.044 468.857 1187.657 C 470.571 1177.488 471.942 1166.941 472.584 1159.000 C 472.918 1154.876 473.384 1151.188 473.620 1150.807 C 473.856 1150.425 474.295 1147.050 474.597 1143.306 C 474.898 1139.563 475.332 1134.700 475.559 1132.500 C 475.787 1130.300 476.200 1124.675 476.477 1120.000 C 476.754 1115.325 477.206 1110.375 477.481 1109.000 C 478.047 1106.176 479.142 1090.041 479.483 1079.500 C 479.608 1075.650 479.786 1072.275 479.879 1072.000 C 480.708 1069.551 481.226 978.863 480.485 966.000 C 480.279 962.425 479.844 954.550 479.518 948.500 C 478.695 933.222 478.265 927.177 477.098 914.500 C 476.541 908.450 475.850 900.575 475.564 897.000 C 475.277 893.425 474.808 888.475 474.521 886.000 C 474.234 883.525 473.804 878.241 473.563 874.257 C 473.323 870.274 472.918 866.674 472.663 866.257 C 472.408 865.841 471.904 862.800 471.542 859.500 C 469.496 840.825 462.844 799.019 458.335 776.500 C 456.353 766.600 454.386 756.700 453.965 754.500 C 450.200 734.872 444.327 712.368 440.131 701.491 C 434.023 685.661 422.087 669.867 408.036 659.021 C 401.476 653.958 385.978 646.072 377.000 643.229 C 370.844 641.279 368.747 640.831 358.000 639.171 C 355.525 638.788 348.775 638.789 343.000 639.174 "/></g>
<g fill="#386BF3FF">
<path d="M 1216.996 1233.215 C 1216.988 1235.659 1202.151 1264.542 1195.121 1275.801 C 1169.036 1317.574 1130.976 1352.849 1088.417 1374.697 C 1084.342 1376.789 1081.007 1379.138 1081.004 1379.917 C 1081.002 1380.696 1081.282 1381.051 1081.627 1380.706 C 1081.972 1380.361 1084.863 1382.086 1088.051 1384.539 C 1091.240 1386.993 1094.284 1389.000 1094.817 1389.000 C 1095.350 1389.000 1096.045 1389.675 1096.362 1390.500 C 1096.678 1391.325 1097.626 1392.000 1098.469 1392.000 C 1099.311 1392.000 1100.000 1392.675 1100.000 1393.500 C 1100.000 1394.325 1100.884 1395.000 1101.965 1395.000 C 1103.045 1395.000 1104.411 1395.900 1105.000 1397.000 C 1105.589 1398.100 1106.664 1399.000 1107.389 1399.000 C 1108.114 1399.000 1109.922 1400.125 1111.405 1401.500 C 1112.889 1402.875 1114.755 1404.000 1115.552 1404.000 C 1116.348 1404.000 1117.003 1404.338 1117.006 1404.750 C 1117.010 1405.163 1118.389 1406.283 1120.071 1407.241 C 1121.753 1408.198 1122.875 1409.394 1122.563 1409.897 C 1122.252 1410.401 1122.845 1410.592 1123.882 1410.321 C 1125.019 1410.023 1126.308 1410.582 1127.133 1411.730 C 1127.885 1412.776 1129.175 1413.945 1130.000 1414.327 C 1130.825 1414.709 1132.850 1415.912 1134.500 1417.000 C 1136.150 1418.088 1138.175 1419.274 1139.000 1419.636 C 1139.825 1419.997 1141.738 1421.436 1143.250 1422.834 C 1144.763 1424.231 1146.000 1424.987 1146.000 1424.513 C 1146.000 1424.039 1147.125 1424.708 1148.500 1426.000 C 1149.875 1427.292 1151.000 1427.967 1151.000 1427.500 C 1151.000 1427.033 1152.108 1427.692 1153.463 1428.965 C 1155.901 1431.255 1158.158 1432.729 1163.000 1435.193 C 1164.375 1435.892 1167.975 1438.160 1171.000 1440.231 C 1174.025 1442.303 1176.993 1443.998 1177.595 1443.999 C 1178.197 1443.999 1179.505 1444.900 1180.500 1446.000 C 1181.495 1447.100 1183.062 1448.000 1183.981 1448.000 C 1184.900 1448.000 1186.708 1449.125 1188.000 1450.500 C 1189.292 1451.875 1191.138 1453.000 1192.103 1453.000 C 1193.068 1453.000 1194.480 1453.623 1195.241 1454.384 C 1196.003 1455.145 1198.397 1456.676 1200.563 1457.787 C 1202.728 1458.897 1205.571 1460.739 1206.879 1461.882 C 1208.188 1463.024 1209.683 1463.696 1210.203 1463.374 C 1210.723 1463.053 1212.127 1463.657 1213.324 1464.717 C 1214.521 1465.776 1218.538 1468.166 1222.250 1470.026 C 1225.963 1471.887 1229.000 1473.767 1229.000 1474.205 C 1229.000 1474.642 1229.855 1475.000 1230.900 1475.000 C 1231.944 1475.000 1235.139 1476.575 1238.000 1478.500 C 1240.861 1480.425 1243.824 1482.000 1244.585 1482.000 C 1245.995 1482.000 1254.576 1486.910 1258.868 1490.173 C 1260.170 1491.163 1261.630 1491.728 1262.114 1491.430 C 1263.191 1490.764 1277.000 1497.902 1277.000 1499.124 C 1277.000 1499.883 1275.524 1500.204 1273.362 1499.915 C 1273.011 1499.868 1272.391 1500.368 1271.984 1501.025 C 1271.578 1501.683 1269.871 1502.291 1268.191 1502.375 C 1266.512 1502.460 1264.801 1502.865 1264.390 1503.276 C 1262.958 1504.709 1252.950 1509.076 1251.729 1508.801 C 1251.053 1508.649 1247.742 1509.963 1244.371 1511.721 C 1240.999 1513.479 1237.147 1515.116 1235.810 1515.358 C 1234.473 1515.600 1231.831 1516.742 1229.940 1517.896 C 1228.048 1519.049 1225.713 1519.994 1224.750 1519.996 C 1223.788 1519.998 1223.000 1520.338 1223.000 1520.750 C 1223.000 1521.353 1212.772 1525.115 1209.750 1525.624 C 1209.338 1525.693 1209.338 1525.820 1209.750 1525.905 C 1210.848 1526.133 1206.779 1528.349 1205.008 1528.488 C 1204.179 1528.553 1202.375 1529.347 1201.000 1530.252 C 1197.512 1532.547 1191.000 1535.178 1191.000 1534.291 C 1191.000 1533.886 1190.299 1534.555 1189.443 1535.777 C 1188.587 1537.000 1187.038 1538.000 1186.000 1538.000 C 1184.963 1538.000 1182.514 1538.944 1180.557 1540.099 C 1178.601 1541.253 1177.000 1541.858 1177.000 1541.444 C 1177.000 1541.029 1176.213 1541.394 1175.250 1542.255 C 1174.288 1543.115 1172.600 1543.973 1171.500 1544.160 C 1170.400 1544.347 1168.707 1545.363 1167.737 1546.418 C 1166.767 1547.473 1165.172 1548.395 1164.192 1548.467 C 1163.213 1548.540 1161.345 1549.345 1160.043 1550.258 C 1158.740 1551.170 1157.348 1551.715 1156.950 1551.469 C 1156.552 1551.223 1155.675 1551.687 1155.000 1552.500 C 1154.325 1553.313 1153.374 1553.731 1152.887 1553.430 C 1152.399 1553.129 1152.000 1553.359 1152.000 1553.941 C 1152.000 1554.523 1151.380 1555.000 1150.622 1555.000 C 1149.865 1555.000 1148.685 1555.675 1148.000 1556.500 C 1147.315 1557.325 1145.685 1558.000 1144.378 1558.000 C 1143.070 1558.000 1142.000 1558.419 1142.000 1558.932 C 1142.000 1559.445 1136.825 1562.448 1130.500 1565.607 C 1124.175 1568.766 1119.000 1571.748 1119.000 1572.234 C 1119.000 1572.720 1118.560 1572.846 1118.021 1572.513 C 1117.225 1572.021 1112.082 1574.901 1110.000 1577.005 C 1109.725 1577.283 1106.490 1579.000 1102.812 1580.820 C 1099.133 1582.640 1095.952 1584.644 1095.742 1585.274 C 1095.532 1585.903 1094.042 1586.513 1092.430 1586.628 C 1090.819 1586.743 1089.870 1586.874 1090.321 1586.919 C 1092.105 1587.095 1087.772 1590.224 1084.488 1591.131 C 1082.571 1591.660 1079.839 1593.172 1078.416 1594.490 C 1075.720 1596.989 1068.000 1601.378 1068.000 1600.413 C 1068.000 1600.107 1067.341 1600.452 1066.535 1601.179 C 1063.257 1604.134 1062.041 1605.000 1061.165 1605.000 C 1060.659 1605.000 1059.689 1605.670 1059.009 1606.489 C 1058.329 1607.308 1057.402 1607.748 1056.948 1607.468 C 1056.494 1607.187 1055.758 1607.555 1055.311 1608.284 C 1054.461 1609.673 1047.000 1614.517 1047.000 1613.680 C 1047.000 1613.415 1045.602 1614.503 1043.894 1616.099 C 1042.186 1617.694 1040.161 1619.000 1039.394 1619.000 C 1038.627 1619.000 1038.000 1619.477 1038.000 1620.059 C 1038.000 1620.641 1037.581 1620.859 1037.069 1620.543 C 1036.557 1620.226 1035.847 1620.438 1035.492 1621.013 C 1035.136 1621.589 1031.843 1624.041 1028.173 1626.463 C 1024.503 1628.885 1020.535 1631.769 1019.356 1632.873 C 1018.177 1633.977 1016.944 1634.611 1016.616 1634.283 C 1016.288 1633.955 1014.912 1634.882 1013.558 1636.343 C 1012.203 1637.804 1010.699 1639.000 1010.214 1639.000 C 1009.155 1639.000 997.750 1646.870 996.910 1648.180 C 996.586 1648.686 995.348 1649.173 994.160 1649.263 C 992.972 1649.352 991.766 1650.117 991.480 1650.963 C 990.908 1652.653 983.279 1657.649 981.878 1657.250 C 981.395 1657.113 980.999 1657.563 980.998 1658.250 C 980.997 1658.938 978.949 1660.794 976.446 1662.375 C 973.943 1663.956 970.006 1666.982 967.698 1669.098 C 965.389 1671.215 963.231 1672.959 962.903 1672.973 C 962.575 1672.988 961.366 1673.816 960.216 1674.812 C 959.067 1675.809 956.915 1677.497 955.433 1678.562 C 953.952 1679.628 951.608 1681.513 950.224 1682.750 C 948.840 1683.988 947.415 1685.000 947.056 1685.000 C 946.697 1685.000 944.850 1686.561 942.952 1688.468 C 941.053 1690.376 938.960 1691.951 938.300 1691.968 C 937.640 1691.986 936.740 1692.565 936.300 1693.256 C 935.860 1693.947 933.700 1695.835 931.500 1697.453 C 929.300 1699.071 927.275 1700.643 927.000 1700.947 C 926.725 1701.251 924.250 1703.291 921.500 1705.479 C 918.750 1707.668 915.976 1709.918 915.336 1710.479 C 914.695 1711.041 911.578 1713.750 908.409 1716.500 C 905.240 1719.250 901.631 1722.400 900.389 1723.500 C 899.146 1724.600 895.772 1727.525 892.890 1730.000 C 890.009 1732.475 886.345 1735.738 884.749 1737.250 C 883.152 1738.763 881.650 1740.000 881.410 1740.000 C 880.973 1740.000 879.767 1741.145 861.213 1759.171 C 850.994 1769.098 839.000 1783.002 839.000 1784.921 C 839.000 1785.515 838.618 1786.000 838.151 1786.000 C 837.101 1786.000 828.595 1804.031 827.065 1809.500 C 823.068 1823.784 821.815 1842.915 824.047 1855.566 C 826.674 1870.452 835.083 1890.507 841.815 1897.943 C 843.089 1899.349 844.760 1901.683 845.528 1903.129 C 846.297 1904.575 847.646 1906.034 848.526 1906.372 C 849.407 1906.710 849.847 1907.439 849.504 1907.993 C 849.162 1908.547 849.495 1909.000 850.245 1909.000 C 850.994 1909.000 853.151 1910.592 855.037 1912.538 C 866.013 1923.863 889.119 1934.510 908.173 1937.023 C 917.232 1938.218 938.741 1937.896 940.948 1936.532 C 941.651 1936.098 945.212 1934.926 948.863 1933.928 C 959.139 1931.119 965.280 1928.830 967.868 1926.844 C 969.170 1925.845 970.576 1925.238 970.992 1925.495 C 971.408 1925.752 972.842 1924.958 974.178 1923.731 C 975.514 1922.504 978.437 1920.242 980.674 1918.704 C 982.910 1917.167 986.486 1914.354 988.620 1912.455 C 990.754 1910.556 992.864 1909.001 993.309 1909.001 C 993.754 1909.000 993.840 1908.550 993.500 1908.000 C 993.160 1907.450 993.338 1907.000 993.896 1907.000 C 994.453 1907.000 995.977 1905.988 997.282 1904.750 C 998.588 1903.513 1003.638 1898.900 1008.506 1894.500 C 1013.374 1890.100 1018.550 1885.375 1020.009 1884.000 C 1021.468 1882.625 1025.293 1879.250 1028.510 1876.500 C 1031.727 1873.750 1035.829 1870.150 1037.625 1868.500 C 1042.277 1864.227 1044.195 1862.640 1046.083 1861.500 C 1046.994 1860.950 1051.220 1857.575 1055.474 1854.000 C 1059.728 1850.425 1063.668 1847.331 1064.230 1847.125 C 1064.791 1846.919 1066.014 1846.019 1066.948 1845.125 C 1071.913 1840.372 1077.280 1836.000 1078.149 1836.000 C 1078.691 1836.000 1080.616 1834.538 1082.428 1832.750 C 1086.795 1828.440 1088.236 1827.377 1090.827 1826.555 C 1092.022 1826.176 1093.000 1825.221 1093.000 1824.433 C 1093.000 1823.645 1093.675 1823.000 1094.500 1823.000 C 1095.325 1823.000 1096.000 1822.550 1096.000 1822.000 C 1096.000 1821.450 1096.440 1821.000 1096.979 1821.000 C 1097.829 1821.000 1111.639 1811.479 1113.000 1809.954 C 1113.275 1809.646 1115.300 1808.318 1117.500 1807.002 C 1119.700 1805.686 1121.860 1804.023 1122.300 1803.305 C 1122.740 1802.587 1123.869 1802.000 1124.809 1802.000 C 1125.750 1802.000 1127.092 1801.083 1127.792 1799.961 C 1128.492 1798.840 1129.501 1798.191 1130.033 1798.520 C 1130.565 1798.849 1131.000 1798.641 1131.000 1798.059 C 1131.000 1797.477 1131.675 1797.000 1132.500 1797.000 C 1133.325 1797.000 1134.000 1796.550 1134.000 1796.000 C 1134.000 1795.450 1134.675 1795.000 1135.500 1795.000 C 1136.325 1795.000 1137.000 1794.325 1137.000 1793.500 C 1137.000 1792.667 1137.889 1792.000 1139.000 1792.000 C 1140.100 1792.000 1141.000 1791.660 1141.000 1791.244 C 1141.000 1790.828 1142.238 1789.937 1143.750 1789.264 C 1145.263 1788.591 1147.718 1786.906 1149.206 1785.520 C 1150.695 1784.134 1152.538 1783.000 1153.303 1783.000 C 1154.529 1783.000 1155.882 1782.089 1160.712 1778.014 C 1161.379 1777.452 1163.179 1776.446 1164.712 1775.780 C 1166.246 1775.113 1168.892 1773.540 1170.594 1772.284 C 1172.296 1771.028 1174.434 1770.000 1175.344 1770.000 C 1176.255 1770.000 1177.000 1769.325 1177.000 1768.500 C 1177.000 1767.667 1177.889 1767.000 1179.000 1767.000 C 1180.100 1767.000 1181.000 1766.622 1181.000 1766.161 C 1181.000 1765.699 1182.795 1764.462 1184.989 1763.411 C 1187.182 1762.360 1188.982 1761.188 1188.989 1760.807 C 1188.995 1760.426 1189.900 1760.288 1191.000 1760.500 C 1192.100 1760.712 1193.000 1760.472 1193.000 1759.968 C 1193.000 1759.463 1195.138 1758.081 1197.750 1756.897 C 1200.363 1755.713 1202.725 1754.401 1203.000 1753.981 C 1203.275 1753.562 1205.300 1752.239 1207.500 1751.041 C 1209.700 1749.843 1212.850 1747.999 1214.500 1746.943 C 1216.150 1745.886 1218.175 1744.760 1219.000 1744.439 C 1219.825 1744.118 1221.175 1743.455 1222.000 1742.966 C 1222.825 1742.476 1225.525 1741.065 1228.000 1739.830 C 1230.475 1738.594 1233.248 1736.968 1234.162 1736.216 C 1235.077 1735.464 1236.494 1734.751 1237.311 1734.631 C 1238.129 1734.511 1239.406 1733.938 1240.149 1733.359 C 1242.229 1731.737 1254.174 1726.000 1255.471 1726.000 C 1256.105 1726.000 1257.593 1725.096 1258.779 1723.992 C 1259.964 1722.887 1262.074 1721.889 1263.467 1721.773 C 1264.860 1721.658 1266.000 1721.267 1266.000 1720.903 C 1266.000 1720.158 1270.893 1717.986 1273.399 1717.618 C 1274.303 1717.485 1274.794 1717.127 1274.489 1716.823 C 1274.185 1716.518 1275.413 1715.696 1277.218 1714.995 C 1279.023 1714.294 1283.727 1712.208 1287.672 1710.360 C 1291.616 1708.512 1295.689 1707.000 1296.722 1707.000 C 1297.755 1707.000 1299.140 1706.460 1299.800 1705.800 C 1300.460 1705.140 1301.000 1704.933 1301.000 1705.339 C 1301.000 1705.745 1301.997 1705.149 1303.215 1704.014 C 1304.433 1702.880 1305.996 1702.168 1306.688 1702.434 C 1307.381 1702.700 1308.352 1702.193 1308.847 1701.309 C 1309.423 1700.280 1310.513 1699.901 1311.874 1700.257 C 1313.043 1700.563 1314.000 1700.414 1314.000 1699.927 C 1314.000 1698.730 1321.444 1695.000 1323.834 1695.000 C 1324.887 1695.000 1327.717 1693.904 1330.124 1692.564 C 1335.075 1689.809 1343.440 1686.772 1346.635 1686.571 C 1347.809 1686.497 1349.384 1685.930 1350.135 1685.312 C 1350.886 1684.694 1356.000 1682.512 1361.500 1680.464 C 1367.000 1678.415 1374.277 1675.673 1377.671 1674.370 C 1381.064 1673.066 1384.750 1672.000 1385.862 1672.000 C 1386.973 1672.000 1388.121 1671.613 1388.414 1671.139 C 1388.706 1670.666 1391.770 1669.503 1395.223 1668.555 C 1398.675 1667.607 1403.300 1666.239 1405.500 1665.515 C 1407.700 1664.791 1411.075 1664.048 1413.000 1663.864 C 1414.925 1663.679 1416.950 1662.985 1417.500 1662.321 C 1418.690 1660.885 1434.696 1656.694 1435.974 1657.484 C 1436.462 1657.786 1437.149 1657.568 1437.500 1657.000 C 1437.851 1656.432 1438.557 1656.226 1439.069 1656.543 C 1439.581 1656.859 1440.000 1656.686 1440.000 1656.159 C 1440.000 1655.631 1442.363 1654.672 1445.250 1654.028 C 1448.138 1653.384 1451.400 1652.445 1452.500 1651.942 C 1453.600 1651.439 1456.975 1650.600 1460.000 1650.076 C 1465.494 1649.125 1471.775 1647.637 1477.571 1645.913 C 1479.260 1645.411 1482.073 1645.000 1483.821 1645.000 C 1485.569 1645.000 1487.000 1644.623 1487.000 1644.162 C 1487.000 1643.475 1494.570 1641.739 1511.500 1638.544 C 1512.600 1638.336 1515.611 1637.683 1518.191 1637.092 C 1520.772 1636.501 1523.584 1636.287 1524.441 1636.616 C 1525.299 1636.945 1526.000 1636.775 1526.000 1636.239 C 1526.000 1635.321 1529.333 1634.585 1538.367 1633.507 C 1540.493 1633.253 1544.931 1632.557 1548.228 1631.959 C 1551.525 1631.361 1554.819 1631.100 1555.547 1631.380 C 1556.275 1631.659 1557.012 1631.500 1557.185 1631.025 C 1557.488 1630.197 1568.147 1628.731 1572.700 1628.892 C 1573.911 1628.934 1575.179 1628.519 1575.520 1627.968 C 1575.860 1627.418 1576.456 1627.164 1576.845 1627.404 C 1577.233 1627.644 1580.690 1627.249 1584.526 1626.525 C 1589.007 1625.680 1592.126 1625.542 1593.250 1626.140 C 1594.355 1626.728 1595.000 1626.712 1595.000 1626.097 C 1595.000 1625.562 1595.788 1625.115 1596.750 1625.105 C 1597.713 1625.094 1599.625 1624.857 1601.000 1624.578 C 1605.478 1623.670 1610.356 1623.109 1618.500 1622.566 C 1630.082 1621.792 1639.849 1621.024 1645.000 1620.481 C 1666.519 1618.212 1708.069 1618.240 1726.500 1620.536 C 1728.150 1620.741 1734.450 1621.189 1740.500 1621.531 C 1746.550 1621.873 1752.050 1622.324 1752.722 1622.534 C 1753.394 1622.744 1764.194 1623.270 1776.722 1623.703 C 1806.618 1624.737 1848.692 1624.355 1857.500 1622.971 C 1861.350 1622.366 1865.491 1621.771 1866.702 1621.650 C 1867.913 1621.528 1869.226 1621.108 1869.619 1620.715 C 1870.012 1620.322 1870.958 1620.000 1871.722 1620.000 C 1873.067 1620.000 1880.707 1616.926 1884.236 1614.965 C 1885.191 1614.434 1886.599 1614.000 1887.364 1614.000 C 1888.129 1614.000 1889.311 1613.330 1889.991 1612.511 C 1890.671 1611.692 1891.626 1611.269 1892.113 1611.570 C 1892.601 1611.871 1893.000 1611.738 1893.000 1611.275 C 1893.000 1610.453 1897.751 1607.273 1899.250 1607.091 C 1900.823 1606.900 1922.000 1586.300 1922.000 1584.961 C 1922.000 1584.511 1922.563 1583.535 1923.250 1582.791 C 1930.271 1575.198 1938.956 1552.852 1941.047 1537.000 C 1942.378 1526.911 1941.496 1511.385 1938.973 1500.500 C 1938.336 1497.750 1937.781 1494.938 1937.740 1494.250 C 1937.700 1493.563 1937.272 1493.000 1936.789 1493.000 C 1936.307 1493.000 1936.022 1492.438 1936.156 1491.750 C 1936.290 1491.063 1935.410 1488.605 1934.200 1486.290 C 1932.990 1483.974 1932.000 1481.387 1932.000 1480.540 C 1932.000 1479.693 1931.638 1479.000 1931.196 1479.000 C 1930.755 1479.000 1929.180 1476.754 1927.697 1474.008 C 1925.039 1469.087 1923.662 1467.235 1917.250 1459.950 C 1915.463 1457.919 1914.000 1455.750 1914.000 1455.129 C 1914.000 1454.508 1913.604 1454.112 1913.121 1454.250 C 1912.637 1454.387 1910.268 1452.700 1907.856 1450.500 C 1901.194 1444.422 1894.818 1440.250 1885.739 1436.028 C 1875.543 1431.286 1870.595 1429.617 1860.629 1427.558 C 1852.128 1425.802 1815.469 1422.156 1802.254 1421.752 C 1797.719 1421.613 1794.006 1421.275 1794.004 1421.000 C 1794.001 1420.725 1791.412 1420.453 1788.250 1420.395 C 1785.087 1420.337 1771.250 1419.977 1757.500 1419.595 C 1743.750 1419.212 1724.625 1418.731 1715.000 1418.525 C 1703.798 1418.286 1692.462 1417.370 1683.500 1415.981 C 1675.800 1414.788 1667.925 1413.603 1666.000 1413.349 C 1657.053 1412.168 1646.313 1410.373 1641.000 1409.171 C 1637.121 1408.293 1623.475 1405.804 1620.500 1405.432 C 1619.950 1405.363 1618.825 1405.050 1618.000 1404.737 C 1617.175 1404.424 1615.825 1404.156 1615.000 1404.143 C 1612.718 1404.104 1610.130 1403.464 1609.431 1402.765 C 1609.086 1402.420 1608.157 1402.386 1607.365 1402.690 C 1606.573 1402.994 1605.089 1402.485 1604.066 1401.560 C 1602.629 1400.259 1602.107 1400.175 1601.766 1401.189 C 1601.404 1402.265 1601.035 1402.261 1599.706 1401.164 C 1598.816 1400.429 1597.669 1400.087 1597.157 1400.403 C 1596.645 1400.719 1595.675 1400.313 1595.000 1399.500 C 1594.325 1398.687 1593.412 1398.245 1592.970 1398.518 C 1592.170 1399.013 1582.855 1397.402 1580.000 1396.276 C 1579.175 1395.951 1577.904 1395.783 1577.176 1395.903 C 1576.448 1396.023 1575.267 1395.637 1574.553 1395.044 C 1573.838 1394.451 1572.594 1394.219 1571.787 1394.528 C 1570.980 1394.838 1569.765 1394.422 1569.087 1393.605 C 1568.409 1392.788 1567.206 1392.367 1566.414 1392.671 C 1565.622 1392.975 1564.376 1392.727 1563.645 1392.121 C 1562.914 1391.514 1562.041 1391.292 1561.705 1391.629 C 1561.368 1391.965 1559.894 1391.939 1558.429 1391.571 C 1556.963 1391.204 1556.020 1390.646 1556.334 1390.333 C 1556.647 1390.019 1554.818 1389.599 1552.268 1389.398 C 1549.719 1389.197 1547.175 1388.575 1546.616 1388.016 C 1546.057 1387.457 1544.430 1387.000 1543.000 1387.000 C 1541.570 1387.000 1539.973 1386.632 1539.450 1386.183 C 1538.928 1385.733 1536.025 1384.794 1533.000 1384.097 C 1524.684 1382.180 1523.933 1381.918 1524.433 1381.109 C 1524.687 1380.698 1523.621 1380.549 1522.066 1380.777 C 1520.510 1381.005 1518.932 1380.699 1518.559 1380.096 C 1518.187 1379.493 1516.979 1379.000 1515.875 1379.000 C 1514.772 1379.000 1512.886 1378.459 1511.684 1377.798 C 1510.483 1377.137 1508.825 1376.491 1508.000 1376.362 C 1507.175 1376.233 1504.025 1375.360 1501.000 1374.421 C 1497.975 1373.483 1494.909 1372.557 1494.187 1372.364 C 1493.464 1372.172 1493.196 1371.491 1493.591 1370.853 C 1494.051 1370.109 1493.871 1369.962 1493.091 1370.444 C 1491.806 1371.238 1474.954 1366.142 1473.862 1364.628 C 1473.511 1364.142 1471.570 1363.595 1469.548 1363.414 C 1467.526 1363.233 1464.438 1362.219 1462.686 1361.162 C 1460.934 1360.105 1457.129 1358.649 1454.230 1357.926 C 1451.332 1357.203 1448.182 1355.912 1447.230 1355.056 C 1446.279 1354.200 1444.375 1353.341 1443.000 1353.146 C 1438.494 1352.508 1428.188 1348.188 1426.035 1346.035 C 1424.876 1344.876 1423.528 1344.174 1423.040 1344.475 C 1421.561 1345.389 1387.079 1330.688 1367.000 1320.583 C 1362.325 1318.230 1356.025 1315.075 1353.000 1313.573 C 1338.841 1306.538 1328.431 1300.729 1327.724 1299.468 C 1327.297 1298.706 1326.309 1298.328 1325.529 1298.627 C 1324.748 1298.927 1322.092 1297.783 1319.625 1296.086 C 1317.158 1294.389 1314.627 1293.000 1314.000 1293.000 C 1313.373 1293.000 1310.898 1291.650 1308.500 1290.000 C 1306.102 1288.350 1303.674 1287.000 1303.105 1287.000 C 1302.535 1287.000 1300.544 1285.660 1298.679 1284.023 C 1296.814 1282.385 1294.996 1281.337 1294.640 1281.693 C 1294.284 1282.050 1292.981 1281.450 1291.746 1280.361 C 1290.511 1279.273 1288.250 1277.850 1286.722 1277.199 C 1285.194 1276.549 1283.684 1275.341 1283.367 1274.514 C 1283.050 1273.688 1282.345 1273.287 1281.800 1273.624 C 1281.255 1273.960 1279.521 1273.283 1277.945 1272.118 C 1276.370 1270.953 1274.808 1270.000 1274.474 1270.000 C 1274.140 1270.000 1272.392 1268.875 1270.589 1267.500 C 1268.786 1266.125 1266.791 1265.000 1266.156 1265.000 C 1265.520 1265.000 1265.000 1264.601 1265.000 1264.114 C 1265.000 1263.627 1263.538 1262.469 1261.750 1261.541 C 1256.021 1258.567 1254.055 1257.359 1252.178 1255.661 C 1251.169 1254.748 1250.022 1254.000 1249.631 1254.000 C 1248.988 1254.000 1243.222 1250.222 1242.000 1249.000 C 1240.621 1247.621 1234.969 1244.000 1234.195 1244.000 C 1233.708 1244.000 1232.495 1243.100 1231.500 1242.000 C 1230.505 1240.900 1229.085 1240.000 1228.345 1240.000 C 1227.605 1240.000 1227.000 1239.550 1227.000 1239.000 C 1227.000 1238.450 1226.351 1238.000 1225.557 1238.000 C 1224.763 1238.000 1223.525 1237.171 1222.807 1236.159 C 1220.931 1233.516 1217.001 1231.525 1216.996 1233.215 "/></g>
<g fill="#386BF3FF">
<path d="M 833.500 67.973 C 827.450 69.631 822.050 71.120 821.500 71.282 C 818.677 72.116 807.982 77.629 804.320 80.137 C 802.021 81.712 799.883 83.000 799.570 83.000 C 799.256 83.000 798.100 83.900 797.000 85.000 C 795.900 86.100 794.432 87.000 793.737 87.000 C 793.043 87.000 792.030 88.001 791.487 89.225 C 790.944 90.449 788.925 92.505 787.000 93.794 C 785.075 95.083 783.500 96.548 783.500 97.050 C 783.500 97.551 782.488 98.671 781.250 99.537 C 780.013 100.404 779.000 101.763 779.000 102.557 C 779.000 103.351 778.550 104.000 778.000 104.000 C 777.450 104.000 777.000 104.620 777.000 105.378 C 777.000 106.135 776.348 107.297 775.550 107.958 C 774.753 108.620 773.162 111.099 772.016 113.467 C 770.869 115.835 769.056 118.782 767.987 120.016 C 766.917 121.249 766.296 122.670 766.607 123.173 C 766.918 123.676 766.764 124.630 766.266 125.294 C 765.768 125.957 764.751 128.525 764.006 131.000 C 763.262 133.475 762.280 135.928 761.826 136.450 C 761.372 136.972 761.000 138.660 761.000 140.200 C 761.000 141.740 760.641 143.000 760.201 143.000 C 759.762 143.000 759.380 144.688 759.352 146.750 C 759.246 154.523 758.724 160.000 758.089 160.000 C 756.975 160.000 759.821 182.035 762.028 190.500 C 765.145 202.462 768.766 211.054 783.114 240.543 C 785.801 246.067 788.000 250.982 788.000 251.465 C 788.000 251.947 788.591 253.053 789.312 253.921 C 790.034 254.790 791.469 257.525 792.500 260.000 C 793.531 262.475 794.881 265.175 795.500 266.000 C 796.119 266.825 797.484 269.525 798.535 272.000 C 799.585 274.475 800.729 276.725 801.076 277.000 C 801.423 277.275 803.065 280.200 804.724 283.500 C 811.029 296.038 816.291 305.512 817.130 305.833 C 817.608 306.017 818.000 306.791 818.000 307.555 C 818.000 308.318 820.025 312.368 822.500 316.554 C 824.975 320.740 827.000 324.546 827.000 325.011 C 827.000 325.476 827.670 326.527 828.489 327.346 C 830.058 328.915 836.987 341.922 836.995 343.314 C 836.998 343.762 838.207 346.687 839.682 349.814 C 841.158 352.941 842.433 355.725 842.516 356.000 C 842.599 356.275 843.192 357.767 843.834 359.315 C 844.475 360.863 845.000 362.776 845.000 363.565 C 845.000 364.354 845.498 365.000 846.107 365.000 C 846.716 365.000 846.955 365.675 846.638 366.500 C 846.322 367.325 846.463 368.000 846.952 368.000 C 847.441 368.000 848.148 369.397 848.523 371.104 C 848.898 372.812 849.998 376.074 850.968 378.354 C 852.662 382.340 854.137 385.949 854.500 387.000 C 854.595 387.275 854.949 388.175 855.287 389.000 C 855.625 389.825 856.400 392.446 857.009 394.823 C 857.618 397.201 859.012 400.742 860.107 402.691 C 861.202 404.640 861.855 406.478 861.558 406.776 C 861.260 407.073 861.409 407.807 861.888 408.408 C 862.677 409.398 866.216 420.086 866.553 422.500 C 866.696 423.520 867.536 425.924 869.000 429.500 C 870.148 432.305 871.255 435.322 871.568 436.500 C 871.714 437.050 872.761 440.341 873.895 443.814 C 875.030 447.286 875.896 450.436 875.820 450.814 C 875.665 451.585 876.736 454.715 877.949 457.038 C 878.391 457.885 879.084 460.585 879.489 463.038 C 879.895 465.492 880.676 468.057 881.225 468.737 C 881.774 469.418 881.984 470.600 881.690 471.365 C 881.396 472.130 881.597 473.197 882.135 473.735 C 882.983 474.583 884.762 480.671 886.568 488.905 C 886.858 490.227 887.560 492.178 888.129 493.240 C 888.697 494.302 888.916 495.417 888.616 495.717 C 888.316 496.017 888.511 497.087 889.050 498.094 C 889.589 499.101 890.223 501.180 890.458 502.713 C 890.694 504.246 891.416 507.525 892.063 510.000 C 892.710 512.475 893.389 515.625 893.571 517.000 C 894.224 521.923 895.963 529.062 896.964 530.934 C 897.704 532.316 897.643 532.953 896.742 533.257 C 895.788 533.578 895.828 534.072 896.917 535.391 C 897.696 536.334 898.667 538.995 899.074 541.303 C 899.482 543.611 900.342 548.200 900.987 551.500 C 901.632 554.800 902.299 558.850 902.470 560.500 C 902.641 562.150 903.015 564.175 903.300 565.000 C 904.649 568.902 905.796 575.368 905.347 576.539 C 905.071 577.257 905.381 578.843 906.034 580.064 C 906.688 581.285 907.361 584.851 907.531 587.989 C 907.701 591.127 908.378 595.676 909.035 598.097 C 909.691 600.519 910.596 606.325 911.045 611.000 C 911.494 615.675 912.530 624.000 913.347 629.500 C 917.817 659.590 920.003 696.834 920.614 753.250 C 920.832 773.439 920.602 782.000 919.840 782.000 C 919.083 782.000 919.070 782.380 919.797 783.255 C 920.396 783.977 920.629 787.055 920.346 790.505 C 920.076 793.802 919.918 799.763 919.995 803.750 C 920.092 808.767 919.769 811.000 918.945 811.000 C 918.033 811.000 918.038 811.341 918.964 812.456 C 919.628 813.257 919.892 814.366 919.549 814.920 C 919.207 815.474 918.690 821.222 918.400 827.694 C 918.111 834.165 917.476 839.706 916.990 840.006 C 916.481 840.321 916.478 841.156 916.983 841.973 C 917.486 842.787 917.486 844.092 916.982 845.034 C 916.498 845.938 916.369 847.697 916.695 848.943 C 917.212 850.919 917.750 851.136 920.894 850.636 C 931.688 848.920 955.101 847.823 968.441 848.408 C 1017.612 850.565 1062.005 863.719 1102.000 887.984 C 1106.675 890.820 1110.933 893.221 1111.462 893.320 C 1111.991 893.419 1112.494 892.375 1112.581 891.000 C 1113.248 880.371 1114.337 872.410 1115.194 871.880 C 1115.868 871.464 1115.833 871.015 1115.090 870.556 C 1114.473 870.174 1114.279 869.357 1114.660 868.741 C 1115.041 868.124 1115.500 865.118 1115.680 862.060 C 1116.204 853.158 1116.727 846.500 1116.903 846.500 C 1116.993 846.500 1117.240 841.775 1117.452 836.000 C 1117.664 830.225 1118.140 821.450 1118.510 816.500 C 1118.879 811.550 1119.330 802.325 1119.512 796.000 C 1119.693 789.675 1119.877 783.938 1119.921 783.250 C 1119.964 782.563 1119.993 781.213 1119.985 780.250 C 1119.977 779.288 1119.935 765.450 1119.892 749.500 C 1119.849 733.550 1119.646 716.675 1119.441 712.000 C 1118.886 699.365 1118.109 684.640 1117.462 674.500 L 1116.888 665.500 1119.257 668.000 C 1120.560 669.375 1122.273 670.646 1123.063 670.825 C 1123.853 671.004 1124.667 671.617 1124.871 672.189 C 1125.365 673.571 1127.487 675.325 1133.500 679.325 C 1136.250 681.153 1138.388 683.179 1138.250 683.825 C 1138.113 684.471 1138.418 685.000 1138.929 685.000 C 1139.439 685.000 1140.460 685.563 1141.197 686.250 C 1141.934 686.938 1144.103 688.354 1146.018 689.398 C 1150.541 691.863 1153.073 694.073 1152.478 695.036 C 1152.216 695.459 1153.316 696.263 1154.921 696.823 C 1156.527 697.382 1158.776 698.776 1159.920 699.920 C 1161.064 701.064 1162.513 702.113 1163.139 702.250 C 1163.765 702.388 1165.708 703.895 1167.457 705.601 C 1169.205 707.307 1172.730 709.930 1175.291 711.430 C 1177.852 712.931 1179.906 714.461 1179.855 714.829 C 1179.805 715.198 1179.816 715.370 1179.882 715.211 C 1179.947 715.051 1180.563 715.390 1181.250 715.964 C 1183.241 717.625 1192.903 724.000 1193.430 724.000 C 1193.871 724.000 1204.132 731.310 1210.000 735.804 C 1211.375 736.857 1213.513 738.038 1214.750 738.427 C 1215.988 738.816 1217.000 739.566 1217.000 740.092 C 1217.000 740.619 1218.137 741.482 1219.526 742.010 C 1220.915 742.538 1222.313 743.652 1222.633 744.485 C 1222.952 745.318 1223.953 746.010 1224.857 746.022 C 1225.761 746.034 1227.625 746.924 1229.000 748.000 C 1230.375 749.076 1232.077 749.966 1232.781 749.978 C 1233.486 749.990 1234.310 750.644 1234.612 751.430 C 1234.913 752.217 1236.362 753.356 1237.830 753.961 C 1241.389 755.429 1245.127 757.618 1245.885 758.680 C 1246.223 759.153 1247.625 760.116 1249.000 760.819 C 1254.766 763.768 1256.792 765.078 1259.570 767.652 C 1261.181 769.146 1262.642 770.230 1262.816 770.062 C 1263.273 769.618 1270.438 773.361 1270.833 774.250 C 1271.017 774.663 1271.772 775.000 1272.512 775.000 C 1273.252 775.000 1274.452 775.564 1275.179 776.252 C 1275.905 776.941 1278.300 778.396 1280.500 779.486 C 1282.700 780.575 1287.425 783.314 1291.000 785.573 C 1300.000 791.258 1306.996 795.000 1308.626 795.000 C 1309.382 795.000 1310.000 795.450 1310.000 796.000 C 1310.000 796.550 1310.675 797.000 1311.500 797.000 C 1312.325 797.000 1313.000 797.398 1313.000 797.883 C 1313.000 798.369 1313.788 799.039 1314.750 799.372 C 1315.713 799.704 1317.850 800.849 1319.500 801.915 C 1321.150 802.981 1323.106 803.887 1323.846 803.927 C 1324.586 803.967 1326.412 804.869 1327.903 805.931 C 1329.395 806.993 1332.614 808.660 1335.058 809.634 C 1337.501 810.609 1340.372 812.215 1341.439 813.203 C 1342.505 814.191 1344.166 815.000 1345.130 815.000 C 1346.093 815.000 1347.160 815.450 1347.500 816.000 C 1347.840 816.550 1348.991 817.000 1350.059 817.000 C 1351.127 817.000 1352.000 817.367 1352.000 817.815 C 1352.000 818.789 1358.484 822.000 1360.451 822.000 C 1361.211 822.000 1361.983 822.338 1362.167 822.750 C 1362.599 823.722 1368.835 827.000 1370.252 827.000 C 1370.852 827.000 1372.187 827.764 1373.219 828.698 C 1374.251 829.633 1375.706 830.486 1376.451 830.596 C 1377.196 830.705 1381.111 832.402 1385.153 834.367 C 1396.387 839.829 1410.996 845.931 1411.030 845.175 C 1411.047 844.804 1411.525 845.297 1412.092 846.271 C 1412.659 847.245 1413.545 847.781 1414.061 847.462 C 1414.578 847.143 1415.000 847.265 1415.000 847.734 C 1415.000 848.202 1417.080 849.141 1419.621 849.821 C 1422.163 850.501 1426.551 852.139 1429.371 853.460 C 1432.192 854.782 1438.325 857.281 1443.000 859.013 C 1447.675 860.746 1452.400 862.724 1453.500 863.409 C 1454.600 864.093 1459.325 865.939 1464.000 867.511 C 1468.675 869.083 1472.928 870.736 1473.450 871.185 C 1473.973 871.633 1475.345 872.000 1476.500 872.000 C 1477.655 872.000 1479.027 872.402 1479.550 872.893 C 1480.601 873.880 1501.422 881.257 1518.500 886.694 C 1524.550 888.620 1531.975 891.093 1535.000 892.191 C 1538.025 893.288 1541.625 894.338 1543.000 894.525 C 1544.375 894.713 1547.236 895.597 1549.358 896.491 C 1551.480 897.386 1553.464 897.870 1553.766 897.567 C 1554.069 897.265 1554.843 897.455 1555.487 897.990 C 1556.132 898.524 1561.348 899.893 1567.079 901.031 C 1587.379 905.061 1609.853 903.459 1626.000 896.831 C 1632.732 894.068 1643.598 888.073 1648.564 884.384 C 1654.012 880.335 1667.441 868.000 1666.400 868.000 C 1666.107 868.000 1667.922 865.384 1670.434 862.188 C 1672.945 858.991 1675.000 855.996 1675.000 855.532 C 1675.000 855.068 1676.152 853.179 1677.560 851.333 C 1678.967 849.487 1680.275 847.170 1680.465 846.184 C 1680.655 845.198 1681.564 842.615 1682.486 840.445 C 1684.229 836.343 1684.751 834.541 1685.658 829.500 C 1685.954 827.850 1686.513 826.275 1686.898 826.000 C 1687.284 825.725 1687.724 822.137 1687.876 818.026 C 1688.027 813.915 1688.473 809.976 1688.867 809.274 C 1689.822 807.566 1688.517 793.380 1686.514 783.705 C 1684.710 774.989 1679.638 760.852 1676.908 756.930 C 1675.925 755.516 1674.980 753.716 1674.810 752.930 C 1674.639 752.143 1674.217 751.275 1673.871 751.000 C 1672.703 750.071 1666.001 740.989 1665.932 740.241 C 1665.894 739.834 1662.253 736.350 1657.839 732.500 C 1653.425 728.650 1648.708 724.488 1647.356 723.250 C 1646.003 722.013 1644.400 721.000 1643.793 721.000 C 1643.186 721.000 1641.214 719.875 1639.411 718.500 C 1637.608 717.125 1635.647 716.000 1635.053 716.000 C 1634.459 716.000 1633.191 715.544 1632.236 714.987 C 1629.544 713.415 1615.862 708.000 1614.585 708.000 C 1613.958 708.000 1609.857 706.823 1605.472 705.385 C 1601.088 703.947 1597.050 702.665 1596.500 702.536 C 1595.314 702.259 1593.710 701.731 1589.000 700.067 C 1587.075 699.387 1583.475 698.232 1581.000 697.500 C 1572.591 695.014 1549.518 686.913 1545.261 684.952 C 1542.929 683.879 1540.597 683.000 1540.077 683.000 C 1539.160 683.000 1530.903 679.698 1522.261 675.875 C 1519.929 674.844 1517.461 674.000 1516.775 674.000 C 1516.090 674.000 1513.272 672.936 1510.514 671.636 C 1501.832 667.542 1497.980 666.000 1496.435 666.000 C 1495.611 666.000 1494.707 665.400 1494.426 664.667 C 1494.144 663.933 1493.242 663.333 1492.421 663.333 C 1491.600 663.333 1488.357 662.152 1485.214 660.708 C 1482.071 659.264 1475.000 656.025 1469.500 653.510 C 1464.000 650.995 1458.306 648.277 1456.846 647.469 C 1455.386 646.661 1453.473 646.000 1452.596 646.000 C 1451.718 646.000 1451.000 645.559 1451.000 645.019 C 1451.000 644.480 1449.893 643.760 1448.541 643.421 C 1447.189 643.081 1445.581 642.200 1444.968 641.461 C 1444.355 640.723 1443.212 640.365 1442.427 640.666 C 1441.642 640.968 1441.000 640.716 1441.000 640.107 C 1441.000 639.498 1440.185 639.000 1439.189 639.000 C 1438.192 639.000 1436.411 638.100 1435.230 637.000 C 1434.050 635.900 1432.416 635.000 1431.601 635.000 C 1430.785 635.000 1429.835 634.543 1429.490 633.984 C 1429.144 633.425 1428.503 633.189 1428.065 633.460 C 1427.626 633.731 1426.478 633.080 1425.513 632.014 C 1424.548 630.948 1422.125 629.540 1420.129 628.886 C 1418.133 628.232 1415.150 626.727 1413.500 625.542 C 1411.850 624.357 1407.913 622.121 1404.750 620.574 C 1401.588 619.027 1399.000 617.290 1399.000 616.714 C 1399.000 616.138 1398.718 615.949 1398.373 616.293 C 1397.567 617.099 1391.836 614.152 1390.402 612.194 C 1389.734 611.283 1388.791 611.011 1387.997 611.502 C 1387.244 611.967 1386.935 611.914 1387.268 611.375 C 1387.585 610.862 1384.842 608.902 1381.173 607.021 C 1377.503 605.140 1374.140 603.015 1373.700 602.300 C 1373.260 601.585 1372.078 601.000 1371.073 601.000 C 1370.067 601.000 1368.685 600.325 1368.000 599.500 C 1367.315 598.675 1366.313 598.000 1365.773 598.000 C 1365.232 598.000 1362.790 596.650 1360.345 595.000 C 1357.900 593.350 1355.665 592.000 1355.378 592.000 C 1355.092 592.000 1354.230 591.438 1353.463 590.750 C 1350.187 587.812 1349.384 587.372 1348.089 587.804 C 1347.337 588.054 1346.985 587.833 1347.308 587.311 C 1347.630 586.790 1346.342 585.802 1344.447 585.117 C 1342.551 584.431 1341.000 583.450 1341.000 582.935 C 1341.000 582.421 1340.325 582.000 1339.500 582.000 C 1338.675 582.000 1337.100 581.100 1336.000 580.000 C 1334.900 578.900 1333.642 578.000 1333.203 578.000 C 1332.242 578.000 1328.824 575.481 1324.725 571.750 C 1323.063 570.238 1320.900 569.000 1319.919 569.000 C 1318.938 569.000 1317.849 568.100 1317.500 567.000 C 1317.151 565.900 1316.108 564.986 1315.183 564.968 C 1313.080 564.928 1309.808 562.526 1310.675 561.658 C 1311.030 561.304 1309.921 560.734 1308.211 560.392 C 1305.436 559.837 1300.699 556.189 1302.345 555.875 C 1302.705 555.806 1302.663 555.672 1302.250 555.576 C 1298.950 554.810 1297.000 553.642 1297.000 552.433 C 1297.000 551.645 1296.306 551.000 1295.458 551.000 C 1293.816 551.000 1293.663 550.900 1287.500 545.773 C 1285.300 543.943 1282.263 541.819 1280.750 541.054 C 1279.238 540.288 1278.000 539.288 1278.000 538.831 C 1278.000 538.374 1277.311 538.000 1276.469 538.000 C 1275.626 538.000 1274.685 537.344 1274.378 536.542 C 1274.070 535.740 1271.851 533.931 1269.448 532.522 C 1267.044 531.114 1264.723 529.363 1264.289 528.631 C 1263.855 527.900 1260.688 525.394 1257.250 523.063 C 1253.813 520.732 1251.000 518.414 1251.000 517.912 C 1251.000 517.410 1250.497 517.000 1249.883 517.000 C 1249.268 517.000 1247.131 515.402 1245.133 513.449 C 1243.135 511.496 1237.000 506.291 1231.500 501.882 C 1218.751 491.661 1211.092 484.844 1199.105 473.049 C 1193.822 467.851 1189.160 463.576 1188.745 463.549 C 1187.607 463.475 1175.935 451.732 1176.469 451.198 C 1177.021 450.646 1172.559 447.000 1171.331 447.000 C 1170.862 447.000 1169.358 445.588 1167.989 443.863 C 1166.620 442.138 1164.645 440.000 1163.600 439.113 C 1161.198 437.074 1159.349 435.217 1155.169 430.644 C 1153.337 428.640 1151.507 427.000 1151.103 427.000 C 1150.699 427.000 1149.353 425.193 1148.112 422.986 C 1146.871 420.778 1145.466 419.212 1144.990 419.506 C 1144.514 419.800 1143.309 418.873 1142.312 417.446 C 1141.315 416.019 1137.125 411.356 1133.000 407.086 C 1128.875 402.815 1123.925 397.379 1122.000 395.005 C 1120.075 392.632 1117.271 389.352 1115.770 387.717 C 1114.268 386.082 1113.242 384.418 1113.488 384.019 C 1113.735 383.619 1112.826 382.786 1111.469 382.168 C 1110.111 381.549 1109.000 380.358 1109.000 379.521 C 1109.000 378.685 1108.438 377.997 1107.750 377.994 C 1107.063 377.990 1105.725 376.753 1104.779 375.244 C 1101.393 369.847 1100.450 368.656 1096.752 365.102 C 1094.690 363.121 1093.003 360.941 1093.002 360.258 C 1093.001 359.576 1092.100 358.455 1091.000 357.768 C 1089.900 357.081 1089.000 355.975 1089.000 355.309 C 1089.000 354.644 1088.361 353.740 1087.581 353.300 C 1086.800 352.860 1086.013 351.825 1085.831 351.000 C 1085.649 350.175 1084.705 348.907 1083.733 348.182 C 1082.762 347.456 1082.226 346.444 1082.542 345.932 C 1082.859 345.419 1082.402 345.000 1081.528 345.000 C 1080.653 345.000 1079.648 344.213 1079.294 343.250 C 1078.940 342.288 1078.054 341.140 1077.325 340.700 C 1076.596 340.260 1076.000 339.496 1076.000 339.002 C 1076.000 338.507 1074.825 336.842 1073.389 335.302 C 1071.953 333.761 1070.379 331.460 1069.891 330.190 C 1069.403 328.919 1068.553 328.158 1068.002 328.499 C 1067.451 328.839 1067.000 328.191 1067.000 327.059 C 1067.000 325.927 1066.475 325.000 1065.833 325.000 C 1065.192 325.000 1064.959 324.708 1065.316 324.351 C 1065.672 323.994 1064.937 322.757 1063.682 321.601 C 1061.309 319.416 1056.000 312.517 1056.000 311.618 C 1056.000 311.335 1054.875 309.889 1053.500 308.405 C 1052.125 306.922 1051.000 305.258 1051.000 304.707 C 1051.000 304.156 1049.425 301.784 1047.500 299.435 C 1045.575 297.085 1044.000 294.859 1044.000 294.488 C 1044.000 294.116 1041.975 291.149 1039.500 287.895 C 1037.025 284.640 1035.000 281.533 1035.000 280.989 C 1035.000 280.445 1034.550 280.000 1034.000 280.000 C 1033.450 280.000 1033.000 279.325 1033.000 278.500 C 1033.000 277.675 1032.602 277.000 1032.117 277.000 C 1031.631 277.000 1030.968 276.213 1030.644 275.250 C 1029.776 272.672 1026.000 266.371 1026.000 267.500 C 1026.000 268.033 1025.213 267.092 1024.250 265.409 C 1023.288 263.726 1020.475 259.055 1018.000 255.030 C 1012.516 246.110 1009.056 240.000 1009.489 240.000 C 1009.667 240.000 1008.055 236.542 1005.906 232.316 C 1003.758 228.089 1002.000 224.039 1002.000 223.316 C 1002.000 222.592 1001.523 222.000 1000.941 222.000 C 1000.359 222.000 1000.160 221.550 1000.500 221.000 C 1000.840 220.450 1000.694 220.000 1000.176 220.000 C 999.315 220.000 998.340 217.860 997.452 214.018 C 997.263 213.203 996.634 212.378 996.054 212.185 C 995.475 211.992 995.000 211.261 995.000 210.561 C 995.000 209.094 983.817 186.689 981.980 184.476 C 981.306 183.664 981.148 182.993 981.628 182.985 C 982.107 182.976 982.022 182.639 981.438 182.235 C 980.854 181.831 978.049 176.775 975.206 171.000 C 968.470 157.318 960.974 143.661 959.777 142.888 C 959.256 142.552 958.862 141.992 958.901 141.644 C 959.048 140.359 955.600 134.000 954.756 134.000 C 954.275 134.000 954.160 133.550 954.500 133.000 C 954.840 132.450 954.754 131.995 954.309 131.989 C 953.864 131.982 952.607 130.070 951.515 127.739 C 950.423 125.407 949.294 123.275 949.006 123.000 C 948.718 122.725 946.734 119.575 944.597 116.000 C 942.461 112.425 938.951 107.363 936.797 104.750 C 934.644 102.138 933.160 99.551 933.500 99.000 C 933.840 98.450 933.574 98.000 932.910 98.000 C 932.246 98.000 930.281 96.538 928.543 94.750 C 926.806 92.963 923.409 89.925 920.993 88.000 C 918.578 86.075 915.306 83.263 913.724 81.750 C 912.141 80.238 909.981 79.000 908.923 79.000 C 907.865 79.000 907.000 78.550 907.000 78.000 C 907.000 77.450 906.380 77.000 905.622 77.000 C 904.865 77.000 903.709 76.354 903.053 75.564 C 902.398 74.775 900.543 73.839 898.931 73.485 C 897.319 73.131 896.000 72.502 896.000 72.087 C 896.000 71.673 895.438 71.307 894.750 71.276 C 894.063 71.244 889.225 70.014 884.000 68.542 C 876.215 66.349 871.792 65.784 859.500 65.413 C 845.192 64.981 843.993 65.099 833.500 67.973 "/></g>
<g fill="#386BF3FF">
<path d="M 830.000 1392.487 C 826.425 1393.191 822.375 1394.074 821.000 1394.449 C 819.625 1394.825 816.925 1395.276 815.000 1395.450 C 813.075 1395.625 810.203 1396.281 808.619 1396.909 C 805.165 1398.277 797.394 1400.162 794.207 1400.406 C 792.946 1400.502 792.233 1400.900 792.624 1401.290 C 793.265 1401.931 790.421 1402.369 785.750 1402.349 C 784.788 1402.345 784.000 1402.763 784.000 1403.278 C 784.000 1403.793 783.325 1403.955 782.500 1403.638 C 781.675 1403.322 781.000 1403.547 781.000 1404.138 C 781.000 1404.730 780.354 1404.966 779.565 1404.663 C 778.775 1404.360 777.988 1404.425 777.815 1404.806 C 777.262 1406.025 758.164 1412.219 757.061 1411.537 C 756.477 1411.177 756.000 1411.282 756.000 1411.771 C 756.000 1412.261 754.472 1413.300 752.605 1414.080 C 750.737 1414.861 749.275 1415.082 749.355 1414.571 C 749.435 1414.061 748.745 1414.398 747.821 1415.321 C 746.898 1416.245 745.690 1417.000 745.137 1417.000 C 744.583 1417.000 742.863 1417.519 741.315 1418.154 C 739.767 1418.788 738.050 1419.418 737.500 1419.554 C 736.950 1419.690 735.150 1420.371 733.500 1421.067 C 731.850 1421.763 730.275 1422.393 730.000 1422.467 C 729.725 1422.540 727.250 1423.638 724.500 1424.906 C 721.750 1426.174 718.150 1427.786 716.500 1428.489 C 714.850 1429.192 711.367 1430.720 708.761 1431.884 C 706.154 1433.048 703.622 1434.000 703.133 1434.000 C 702.645 1434.000 701.689 1434.670 701.009 1435.489 C 700.329 1436.308 699.487 1436.812 699.137 1436.609 C 698.787 1436.406 695.350 1437.951 691.500 1440.041 C 687.650 1442.132 681.350 1445.475 677.500 1447.469 C 673.650 1449.464 668.700 1452.180 666.500 1453.505 C 664.300 1454.831 660.694 1456.772 658.486 1457.821 C 656.278 1458.869 653.860 1460.463 653.113 1461.363 C 652.366 1462.264 651.248 1462.999 650.628 1462.998 C 650.007 1462.996 646.575 1464.936 643.000 1467.308 C 639.425 1469.680 633.125 1473.799 629.000 1476.462 C 619.182 1482.800 599.626 1497.263 594.272 1502.145 C 591.947 1504.265 589.697 1506.002 589.272 1506.005 C 588.848 1506.007 586.704 1507.695 584.510 1509.755 C 582.315 1511.815 579.493 1514.213 578.239 1515.084 C 573.213 1518.574 527.972 1562.000 529.362 1562.000 C 529.632 1562.000 527.636 1564.240 524.926 1566.979 C 522.217 1569.717 520.000 1572.221 520.000 1572.543 C 520.000 1572.865 518.631 1574.281 516.958 1575.689 C 515.285 1577.097 514.115 1578.448 514.358 1578.691 C 514.601 1578.934 513.383 1580.603 511.650 1582.398 C 508.040 1586.141 505.000 1589.823 505.000 1590.456 C 505.000 1590.694 503.427 1592.601 501.505 1594.694 C 499.582 1596.787 498.007 1598.832 498.005 1599.239 C 498.000 1599.992 496.262 1602.224 492.250 1606.632 C 491.013 1607.991 489.999 1609.417 489.999 1609.802 C 489.998 1610.186 488.843 1611.843 487.431 1613.484 C 486.019 1615.126 483.912 1618.163 482.748 1620.234 C 481.584 1622.305 480.265 1624.000 479.816 1624.000 C 479.367 1624.000 479.000 1624.482 479.000 1625.071 C 479.000 1625.661 478.438 1626.770 477.750 1627.537 C 474.902 1630.713 473.950 1632.000 474.451 1632.000 C 474.742 1632.000 474.197 1632.915 473.240 1634.032 C 472.283 1635.150 471.622 1636.284 471.771 1636.552 C 471.920 1636.820 471.204 1637.938 470.181 1639.036 C 469.157 1640.135 467.685 1642.264 466.910 1643.767 C 466.134 1645.270 464.938 1647.095 464.250 1647.821 C 463.563 1648.548 463.000 1649.786 463.000 1650.571 C 463.000 1651.357 462.618 1652.000 462.152 1652.000 C 461.685 1652.000 460.492 1653.800 459.500 1656.000 C 458.508 1658.200 457.288 1660.000 456.789 1660.000 C 456.290 1660.000 456.136 1660.412 456.447 1660.915 C 456.758 1661.418 456.615 1661.980 456.129 1662.165 C 454.429 1662.810 448.165 1676.656 445.104 1686.534 C 441.538 1698.042 439.569 1714.240 440.489 1724.500 C 441.574 1736.604 445.814 1751.740 451.077 1762.302 C 453.764 1767.694 456.645 1772.788 457.481 1773.624 C 458.316 1774.459 459.000 1775.520 459.000 1775.981 C 459.000 1777.732 474.964 1792.924 482.074 1797.938 C 491.200 1804.375 495.007 1806.362 505.384 1810.104 C 545.082 1824.418 589.101 1812.346 616.500 1779.631 C 618.700 1777.005 620.906 1773.988 621.403 1772.928 C 621.899 1771.867 622.687 1771.000 623.153 1771.000 C 623.619 1771.000 624.000 1770.363 624.000 1769.583 C 624.000 1768.804 624.344 1768.017 624.764 1767.833 C 625.708 1767.422 634.003 1754.181 634.291 1752.627 C 634.406 1752.007 634.759 1751.275 635.075 1751.000 C 636.248 1749.980 644.055 1738.000 643.547 1738.000 C 643.051 1738.000 643.876 1736.911 648.345 1731.666 C 649.360 1730.475 650.834 1728.263 651.621 1726.750 C 652.408 1725.238 653.565 1724.000 654.192 1724.000 C 654.820 1724.000 655.071 1723.738 654.750 1723.417 C 654.429 1723.096 654.917 1722.061 655.833 1721.116 C 656.750 1720.172 658.625 1717.869 660.000 1716.000 C 661.375 1714.131 663.288 1711.791 664.250 1710.801 C 665.213 1709.810 666.000 1708.746 666.000 1708.435 C 666.000 1708.125 667.369 1706.719 669.042 1705.311 C 670.715 1703.903 671.888 1702.555 671.649 1702.315 C 671.096 1701.763 696.873 1676.002 703.984 1670.000 C 706.917 1667.525 710.046 1664.734 710.937 1663.798 C 712.325 1662.342 726.804 1651.672 744.588 1639.000 C 747.290 1637.075 751.036 1634.716 752.913 1633.758 C 754.790 1632.799 757.040 1631.382 757.913 1630.607 C 758.786 1629.833 761.075 1628.463 763.000 1627.564 C 764.925 1626.664 767.783 1625.223 769.352 1624.361 C 770.921 1623.498 772.946 1622.649 773.852 1622.473 C 774.758 1622.297 775.050 1622.113 774.500 1622.065 C 773.315 1621.960 783.678 1616.870 785.671 1616.578 C 786.426 1616.467 786.733 1616.067 786.355 1615.688 C 785.976 1615.310 786.178 1615.000 786.804 1615.000 C 787.429 1615.000 790.317 1613.925 793.220 1612.612 C 804.631 1607.451 807.737 1606.163 814.000 1603.996 C 817.575 1602.759 821.149 1601.242 821.942 1600.624 C 823.095 1599.725 823.211 1599.801 822.520 1601.000 C 822.006 1601.893 822.605 1601.690 824.000 1600.500 C 825.416 1599.292 826.010 1599.094 825.500 1600.000 C 824.831 1601.189 825.055 1601.160 826.578 1599.861 C 827.635 1598.960 830.075 1597.860 832.000 1597.418 C 836.917 1596.287 836.972 1596.273 837.250 1596.048 C 837.388 1595.938 838.175 1595.699 839.000 1595.517 C 839.825 1595.336 842.300 1594.721 844.500 1594.150 C 848.255 1593.177 850.486 1592.561 859.750 1589.938 C 861.813 1589.355 864.175 1588.867 865.000 1588.855 C 865.825 1588.842 867.175 1588.577 868.000 1588.266 C 870.438 1587.345 873.347 1586.723 875.750 1586.608 C 876.988 1586.549 878.000 1586.235 878.000 1585.910 C 878.000 1585.279 884.332 1583.035 887.272 1582.624 C 888.246 1582.488 888.733 1582.067 888.355 1581.688 C 887.976 1581.310 888.137 1581.000 888.711 1581.000 C 889.286 1581.000 891.384 1580.320 893.373 1579.489 C 895.363 1578.657 897.116 1578.095 897.270 1578.239 C 897.423 1578.382 898.213 1577.928 899.025 1577.229 C 899.836 1576.531 903.366 1574.072 906.869 1571.766 C 920.450 1562.824 933.848 1547.104 940.895 1531.844 C 947.813 1516.859 949.488 1508.792 949.476 1490.500 C 949.467 1477.192 949.083 1472.987 947.194 1465.507 C 944.799 1456.026 937.888 1439.870 934.818 1436.574 C 933.818 1435.501 933.000 1434.300 933.000 1433.906 C 933.000 1431.952 922.155 1419.987 914.935 1413.975 C 903.887 1404.776 895.519 1400.388 879.246 1395.263 C 867.995 1391.719 866.847 1391.556 852.000 1391.386 C 842.715 1391.280 833.894 1391.721 830.000 1392.487 "/></g>
<g fill="#386BF3FF">
<path d="M 1313.983 928.305 C 1313.717 928.545 1310.277 929.017 1306.337 929.353 C 1302.397 929.689 1298.122 930.386 1296.837 930.901 C 1295.552 931.417 1292.025 932.593 1289.000 933.515 C 1275.832 937.529 1261.760 946.253 1250.750 957.229 C 1247.038 960.931 1244.000 964.197 1244.000 964.488 C 1244.000 964.779 1242.808 966.355 1241.352 967.990 C 1238.237 971.485 1236.954 973.593 1233.430 981.000 C 1224.176 1000.450 1222.815 1005.309 1222.229 1021.000 C 1221.774 1033.147 1221.860 1033.813 1225.275 1044.581 C 1227.207 1050.676 1229.572 1059.226 1230.530 1063.581 C 1231.488 1067.936 1233.673 1074.149 1235.386 1077.386 C 1237.099 1080.624 1238.944 1084.111 1239.487 1085.136 C 1240.030 1086.161 1240.763 1087.000 1241.117 1087.000 C 1241.470 1087.000 1243.709 1089.582 1246.092 1092.738 C 1248.475 1095.895 1252.017 1100.240 1253.962 1102.395 C 1259.649 1108.693 1281.086 1129.895 1289.457 1137.500 C 1293.694 1141.350 1298.440 1145.738 1300.004 1147.250 C 1301.567 1148.763 1303.167 1150.000 1303.558 1150.000 C 1303.950 1150.000 1305.335 1151.148 1306.635 1152.552 C 1307.936 1153.955 1309.000 1154.755 1309.000 1154.329 C 1309.000 1153.903 1310.325 1155.005 1311.944 1156.777 C 1313.563 1158.550 1315.199 1160.000 1315.579 1160.000 C 1315.959 1160.000 1317.226 1161.013 1318.393 1162.250 C 1319.561 1163.488 1321.752 1165.140 1323.263 1165.922 C 1324.774 1166.704 1327.245 1168.604 1328.755 1170.144 C 1330.265 1171.684 1332.063 1172.957 1332.750 1172.972 C 1333.438 1172.988 1334.000 1173.450 1334.000 1174.000 C 1334.000 1174.550 1334.689 1175.000 1335.531 1175.000 C 1336.374 1175.000 1337.322 1175.675 1337.638 1176.500 C 1337.955 1177.325 1338.691 1178.000 1339.273 1178.000 C 1339.856 1178.000 1341.045 1178.654 1341.916 1179.454 C 1342.787 1180.253 1344.513 1181.828 1345.750 1182.954 C 1346.988 1184.079 1348.645 1185.000 1349.433 1185.000 C 1350.221 1185.000 1351.153 1185.907 1351.505 1187.015 C 1351.856 1188.123 1352.595 1188.750 1353.146 1188.410 C 1353.697 1188.069 1355.240 1188.816 1356.574 1190.070 C 1357.908 1191.323 1359.000 1191.967 1359.000 1191.500 C 1359.000 1191.033 1360.046 1191.634 1361.324 1192.835 C 1362.602 1194.036 1363.876 1194.791 1364.154 1194.513 C 1364.431 1194.235 1365.714 1195.131 1367.004 1196.504 C 1368.293 1197.877 1369.804 1199.000 1370.360 1199.000 C 1370.916 1199.000 1372.364 1199.933 1373.577 1201.073 C 1374.791 1202.213 1376.395 1203.252 1377.142 1203.383 C 1377.889 1203.514 1380.075 1204.605 1382.000 1205.807 C 1383.925 1207.009 1385.925 1207.994 1386.445 1207.996 C 1386.965 1207.998 1388.552 1209.112 1389.971 1210.472 C 1391.390 1211.832 1393.440 1213.093 1394.526 1213.275 C 1395.611 1213.457 1398.750 1215.036 1401.500 1216.784 C 1404.250 1218.532 1407.027 1219.971 1407.671 1219.981 C 1408.315 1219.991 1413.183 1222.506 1418.489 1225.570 C 1429.098 1231.695 1436.930 1235.176 1453.440 1241.106 C 1459.458 1243.267 1465.149 1245.730 1466.088 1246.580 C 1467.028 1247.430 1469.489 1248.336 1471.559 1248.592 C 1473.629 1248.849 1476.712 1249.700 1478.411 1250.483 C 1480.110 1251.266 1484.425 1252.852 1488.000 1254.007 C 1491.575 1255.162 1495.281 1256.533 1496.236 1257.053 C 1497.191 1257.574 1498.864 1258.000 1499.953 1258.000 C 1501.041 1258.000 1503.410 1258.621 1505.216 1259.380 C 1510.009 1261.394 1515.393 1263.000 1517.353 1263.000 C 1518.294 1263.000 1520.737 1263.725 1522.782 1264.611 C 1524.827 1265.497 1528.300 1266.405 1530.500 1266.630 C 1532.700 1266.854 1534.638 1267.445 1534.808 1267.942 C 1534.977 1268.440 1536.186 1268.653 1537.494 1268.415 C 1538.802 1268.178 1540.140 1268.418 1540.468 1268.948 C 1540.796 1269.479 1541.730 1269.657 1542.545 1269.344 C 1543.359 1269.032 1544.675 1269.315 1545.469 1269.974 C 1546.263 1270.633 1547.402 1270.870 1548.000 1270.500 C 1548.598 1270.130 1549.630 1270.235 1550.294 1270.733 C 1550.957 1271.230 1552.804 1271.719 1554.399 1271.820 C 1555.993 1271.920 1557.886 1272.490 1558.605 1273.087 C 1559.324 1273.684 1560.312 1273.925 1560.800 1273.624 C 1561.288 1273.322 1563.220 1273.493 1565.094 1274.005 C 1566.967 1274.516 1570.525 1275.180 1573.000 1275.481 C 1583.124 1276.712 1586.538 1277.238 1587.273 1277.681 C 1587.699 1277.937 1590.174 1278.343 1592.773 1278.582 C 1595.373 1278.821 1602.000 1279.514 1607.500 1280.122 C 1635.803 1283.251 1669.077 1284.081 1684.500 1282.042 C 1719.411 1277.429 1747.584 1257.408 1763.577 1225.847 C 1765.000 1223.039 1766.314 1219.964 1766.497 1219.014 C 1766.680 1218.064 1767.873 1213.960 1769.147 1209.893 C 1771.206 1203.323 1771.466 1200.495 1771.482 1184.500 C 1771.498 1168.766 1771.209 1165.430 1769.186 1158.000 C 1766.291 1147.365 1760.190 1134.567 1753.762 1125.643 C 1749.159 1119.254 1735.403 1105.000 1733.839 1105.000 C 1733.456 1105.000 1732.548 1104.432 1731.821 1103.737 C 1726.930 1099.062 1704.122 1088.000 1699.374 1088.000 C 1698.068 1088.000 1697.000 1087.663 1697.000 1087.250 C 1697.000 1086.838 1695.763 1086.464 1694.250 1086.419 C 1692.738 1086.375 1687.675 1085.825 1683.000 1085.197 C 1678.325 1084.569 1669.550 1083.992 1663.500 1083.915 C 1657.450 1083.838 1651.740 1083.374 1650.811 1082.885 C 1649.766 1082.334 1648.881 1082.384 1648.492 1083.014 C 1648.145 1083.574 1647.460 1083.784 1646.969 1083.481 C 1646.477 1083.177 1643.921 1082.892 1641.288 1082.847 C 1638.654 1082.802 1635.658 1082.323 1634.629 1081.783 C 1633.211 1081.038 1632.946 1081.104 1633.534 1082.055 C 1634.072 1082.926 1633.903 1083.058 1632.982 1082.489 C 1632.252 1082.038 1629.595 1081.546 1627.078 1081.395 C 1623.089 1081.157 1617.686 1080.541 1611.779 1079.651 C 1610.832 1079.508 1609.776 1079.109 1609.431 1078.765 C 1609.086 1078.420 1608.168 1078.382 1607.389 1078.681 C 1606.611 1078.979 1605.418 1078.800 1604.737 1078.281 C 1604.057 1077.763 1602.038 1077.435 1600.250 1077.552 C 1598.463 1077.670 1597.000 1077.338 1597.000 1076.816 C 1597.000 1076.293 1596.100 1076.151 1595.000 1076.500 C 1593.879 1076.856 1593.000 1076.680 1593.000 1076.099 C 1593.000 1075.529 1592.400 1075.293 1591.668 1075.574 C 1590.572 1075.995 1585.224 1075.058 1580.500 1073.618 C 1579.950 1073.450 1578.150 1072.980 1576.500 1072.573 C 1574.850 1072.166 1572.825 1071.578 1572.000 1071.266 C 1571.175 1070.955 1569.635 1070.533 1568.578 1070.330 C 1567.522 1070.127 1566.172 1069.601 1565.578 1069.161 C 1564.985 1068.722 1563.170 1068.278 1561.544 1068.176 C 1559.918 1068.073 1558.141 1067.541 1557.594 1066.994 C 1557.047 1066.447 1555.549 1066.000 1554.265 1066.000 C 1552.980 1066.000 1550.876 1065.310 1549.589 1064.467 C 1548.302 1063.623 1546.180 1062.731 1544.874 1062.483 C 1538.756 1061.325 1537.000 1060.782 1537.000 1060.050 C 1537.000 1059.615 1533.513 1058.037 1529.250 1056.544 C 1524.988 1055.050 1516.853 1051.386 1511.173 1048.402 C 1505.493 1045.418 1500.487 1043.199 1500.048 1043.470 C 1499.609 1043.742 1497.506 1042.709 1495.375 1041.176 C 1493.244 1039.643 1489.403 1037.381 1486.839 1036.148 C 1484.276 1034.916 1481.931 1033.261 1481.627 1032.471 C 1481.324 1031.680 1480.468 1031.267 1479.725 1031.552 C 1478.982 1031.837 1477.545 1031.155 1476.532 1030.035 C 1475.519 1028.916 1474.110 1028.000 1473.402 1028.000 C 1472.693 1028.000 1471.449 1027.051 1470.637 1025.892 C 1469.824 1024.732 1468.734 1024.046 1468.214 1024.368 C 1467.693 1024.690 1466.462 1024.063 1465.479 1022.976 C 1464.495 1021.889 1463.101 1021.000 1462.380 1021.000 C 1461.660 1021.000 1460.582 1020.087 1459.985 1018.972 C 1459.388 1017.857 1458.519 1017.179 1458.055 1017.466 C 1457.590 1017.753 1456.961 1017.340 1456.656 1016.547 C 1456.352 1015.753 1454.617 1014.345 1452.801 1013.417 C 1450.986 1012.489 1449.140 1011.115 1448.700 1010.365 C 1448.260 1009.614 1447.443 1009.000 1446.884 1009.000 C 1446.324 1009.000 1444.209 1007.429 1442.183 1005.509 C 1440.157 1003.588 1437.938 1002.013 1437.250 1002.009 C 1436.563 1002.004 1436.000 1001.298 1436.000 1000.441 C 1436.000 999.584 1435.630 999.110 1435.178 999.390 C 1434.726 999.669 1433.650 999.133 1432.786 998.199 C 1431.922 997.264 1428.431 994.025 1425.028 991.000 C 1415.657 982.669 1408.337 975.321 1407.665 973.570 C 1407.334 972.706 1406.299 972.000 1405.365 972.000 C 1404.431 972.000 1403.919 971.748 1404.227 971.439 C 1404.536 971.131 1403.738 969.829 1402.455 968.545 C 1401.171 967.262 1399.869 966.464 1399.561 966.773 C 1399.252 967.081 1399.000 966.808 1399.000 966.167 C 1399.000 964.971 1391.978 957.727 1383.671 950.354 C 1381.102 948.073 1379.000 946.464 1379.000 946.778 C 1379.000 947.092 1377.988 946.422 1376.750 945.289 C 1375.513 944.157 1373.600 942.956 1372.500 942.621 C 1371.400 942.286 1369.193 940.884 1367.594 939.506 C 1365.996 938.128 1364.421 936.966 1364.094 936.923 C 1361.847 936.634 1351.026 933.129 1348.868 931.991 C 1345.110 930.010 1315.550 926.886 1313.983 928.305 "/></g>
<g fill="#386BF3FF">
<path d="M 624.500 384.257 C 620.100 385.341 615.033 386.875 613.239 387.666 C 611.445 388.457 609.533 388.829 608.989 388.493 C 608.445 388.157 607.999 388.246 607.998 388.691 C 607.996 389.136 605.409 390.822 602.248 392.438 C 599.086 394.053 595.266 396.219 593.757 397.251 C 592.248 398.282 590.491 398.803 589.852 398.409 C 589.180 397.993 588.959 398.125 589.328 398.722 C 589.678 399.288 588.285 400.918 586.232 402.343 C 577.047 408.719 565.963 421.918 558.806 435.000 C 554.224 443.376 548.390 461.197 548.904 465.250 C 549.026 466.213 548.746 467.000 548.282 467.000 C 547.818 467.000 547.573 469.331 547.737 472.180 C 547.917 475.303 547.581 477.641 546.890 478.068 C 546.225 478.479 546.086 479.330 546.557 480.093 C 547.005 480.817 547.468 482.555 547.587 483.955 C 547.706 485.355 548.082 489.875 548.422 494.000 C 548.763 498.125 549.757 503.750 550.630 506.500 C 551.504 509.250 552.326 512.175 552.456 513.000 C 552.885 515.715 554.286 518.655 568.410 546.500 C 570.084 549.800 571.802 552.650 572.227 552.833 C 572.652 553.017 573.000 553.847 573.000 554.679 C 573.000 555.511 573.931 557.498 575.068 559.096 C 576.206 560.693 576.768 562.007 576.318 562.015 C 575.868 562.024 576.051 562.381 576.725 562.809 C 577.398 563.237 578.091 564.514 578.264 565.647 C 578.437 566.780 579.294 568.800 580.169 570.136 C 581.044 571.471 582.571 575.137 583.563 578.282 C 584.554 581.427 585.683 584.000 586.071 584.000 C 586.460 584.000 587.073 585.575 587.434 587.500 C 587.795 589.425 588.520 591.000 589.045 591.000 C 589.570 591.000 589.908 591.338 589.795 591.750 C 589.618 592.396 590.230 594.601 592.641 602.000 C 592.909 602.825 593.024 603.500 592.896 603.500 C 592.767 603.500 593.280 604.625 594.035 606.000 C 594.790 607.375 595.454 608.950 595.511 609.500 C 595.568 610.050 595.888 611.175 596.224 612.000 C 596.559 612.825 597.166 614.850 597.573 616.500 C 597.980 618.150 598.450 619.950 598.617 620.500 C 599.866 624.604 601.149 629.914 601.411 632.056 C 601.582 633.462 602.219 635.541 602.826 636.675 C 603.433 637.809 603.664 639.003 603.340 639.327 C 603.015 639.652 603.419 641.623 604.237 643.709 C 605.055 645.794 605.525 648.059 605.282 648.741 C 605.038 649.424 605.413 651.674 606.115 653.741 C 606.816 655.809 607.481 659.300 607.592 661.500 C 607.703 663.700 608.518 670.450 609.403 676.500 C 610.289 682.550 611.076 690.200 611.153 693.500 C 611.542 710.171 611.176 742.438 610.517 749.500 C 610.107 753.900 609.710 758.513 609.636 759.750 C 609.561 760.988 609.114 762.000 608.643 762.000 C 608.172 762.000 607.995 762.563 608.251 763.250 C 608.675 764.388 608.319 768.090 606.541 781.000 C 606.200 783.475 605.550 785.630 605.096 785.788 C 604.643 785.947 604.426 787.409 604.616 789.038 C 604.806 790.667 604.548 792.000 604.043 792.000 C 603.538 792.000 603.168 792.788 603.221 793.750 C 603.375 796.527 600.934 807.000 600.133 807.000 C 599.734 807.000 599.448 808.238 599.498 809.750 C 599.549 811.263 598.815 814.372 597.869 816.660 C 596.923 818.947 595.915 822.097 595.629 823.660 C 595.343 825.222 594.388 828.750 593.508 831.500 C 588.864 846.005 586.596 870.071 589.023 879.086 C 589.657 881.439 590.297 884.295 590.445 885.432 C 591.114 890.558 592.301 895.068 593.113 895.570 C 593.601 895.871 594.000 896.933 594.000 897.928 C 594.000 900.636 603.514 918.685 607.703 923.924 C 614.778 932.772 631.094 948.000 633.500 948.000 C 633.848 948.000 635.566 949.072 637.317 950.383 C 642.884 954.550 659.296 960.494 670.500 962.400 C 682.061 964.368 687.654 964.626 695.000 963.530 C 698.025 963.079 702.075 962.630 704.000 962.532 C 705.925 962.435 708.252 962.015 709.172 961.600 C 710.091 961.185 711.441 960.731 712.172 960.591 C 720.095 959.073 732.690 953.408 743.061 946.698 C 749.068 942.811 765.793 925.451 771.416 917.265 C 773.394 914.386 776.997 906.961 779.422 900.765 C 785.549 885.113 785.277 885.872 787.204 879.000 C 787.898 876.525 788.910 874.187 789.454 873.804 C 789.997 873.422 790.133 872.800 789.756 872.423 C 789.379 872.046 789.511 870.913 790.050 869.906 C 790.589 868.899 791.194 866.820 791.393 865.287 C 791.907 861.341 793.149 856.675 793.999 855.500 C 794.658 854.589 795.490 850.783 796.530 843.918 C 796.746 842.498 797.384 840.120 797.949 838.633 C 798.514 837.147 798.929 835.609 798.870 835.215 C 798.811 834.822 798.847 834.275 798.950 834.000 C 799.119 833.550 799.426 831.783 800.426 825.500 C 800.601 824.400 800.840 823.500 800.956 823.500 C 801.181 823.500 801.481 821.853 802.415 815.500 C 802.738 813.300 803.299 810.150 803.662 808.500 C 804.024 806.850 804.436 804.600 804.577 803.500 C 804.718 802.400 804.921 801.500 805.028 801.500 C 805.135 801.500 805.357 799.700 805.520 797.500 C 805.683 795.300 805.916 793.500 806.037 793.500 C 806.276 793.500 806.377 792.538 807.395 780.500 C 807.768 776.100 808.320 770.815 808.623 768.756 C 809.343 763.861 809.946 755.178 810.551 741.000 C 811.527 718.113 811.584 710.309 810.857 699.500 C 810.450 693.450 809.860 682.425 809.547 675.000 C 808.840 658.259 808.611 656.125 806.051 642.544 C 804.916 636.518 804.137 630.468 804.320 629.100 C 804.503 627.732 804.076 625.454 803.370 624.039 C 802.664 622.624 801.886 619.449 801.641 616.983 C 801.040 610.920 799.085 601.207 795.909 588.500 C 795.359 586.300 794.782 583.344 794.626 581.932 C 794.471 580.520 794.015 578.834 793.615 578.186 C 792.817 576.895 792.550 575.913 790.979 568.500 C 790.396 565.750 789.543 562.808 789.083 561.962 C 788.623 561.115 787.927 558.530 787.537 556.217 C 787.146 553.903 786.408 551.752 785.897 551.436 C 785.386 551.120 785.221 550.452 785.530 549.952 C 785.839 549.451 785.525 548.020 784.832 546.771 C 784.138 545.522 783.524 544.275 783.466 544.000 C 782.725 540.472 780.574 534.219 779.760 533.226 C 779.185 532.525 778.972 531.694 779.287 531.380 C 779.601 531.066 778.982 529.248 777.910 527.340 C 776.838 525.432 776.222 523.450 776.540 522.935 C 776.858 522.421 776.589 522.000 775.942 522.000 C 775.259 522.000 774.986 521.162 775.290 520.000 C 775.577 518.900 775.457 518.000 775.023 518.000 C 774.589 518.000 773.904 516.988 773.501 515.750 C 773.098 514.513 772.671 513.275 772.551 513.000 C 772.431 512.725 771.798 511.150 771.146 509.500 C 770.493 507.850 769.538 505.600 769.024 504.500 C 767.801 501.883 764.717 494.640 764.552 494.000 C 764.482 493.725 763.594 491.700 762.579 489.500 C 761.565 487.300 759.895 483.670 758.867 481.434 C 757.840 479.198 757.000 476.873 757.000 476.268 C 757.000 475.662 756.663 475.017 756.250 474.833 C 755.308 474.415 751.576 466.763 751.820 465.750 C 751.919 465.338 751.475 465.000 750.833 465.000 C 750.192 465.000 749.941 464.726 750.277 464.390 C 750.612 464.055 749.887 462.142 748.665 460.140 C 747.443 458.138 745.556 454.700 744.472 452.500 C 743.387 450.300 741.713 447.427 740.750 446.115 C 739.788 444.803 739.000 442.891 739.000 441.865 C 739.000 440.839 738.646 440.000 738.213 440.000 C 737.780 440.000 735.727 437.046 733.651 433.436 C 731.574 429.826 729.041 425.888 728.021 424.686 C 727.001 423.484 724.394 420.232 722.226 417.460 C 717.359 411.235 707.459 402.540 699.500 397.498 C 690.895 392.048 682.985 388.713 671.000 385.484 C 657.055 381.727 636.925 381.195 624.500 384.257 "/></g>
<g fill="#000000FF">
<path d="M 825.633 958.096 C 811.001 959.640 802.817 963.180 798.265 969.935 C 794.053 976.186 792.776 982.505 792.257 999.676 C 791.142 1036.597 797.557 1046.586 824.504 1049.891 C 829.491 1050.503 849.119 1050.996 868.550 1050.997 C 894.475 1050.999 903.912 1051.312 904.800 1052.200 C 905.714 1053.114 905.996 1072.616 905.985 1133.950 C 905.976 1178.253 905.636 1215.024 905.229 1215.665 C 904.686 1216.517 890.421 1216.947 851.994 1217.270 C 796.968 1217.733 791.535 1218.148 782.836 1222.547 C 771.744 1228.156 767.771 1239.220 767.771 1264.500 C 767.771 1290.685 771.936 1301.554 784.012 1306.883 C 794.559 1311.536 793.190 1311.500 958.500 1311.500 C 1124.182 1311.500 1122.194 1311.553 1133.230 1306.806 C 1142.876 1302.656 1147.242 1294.089 1149.112 1275.648 C 1149.990 1266.991 1149.986 1261.569 1149.095 1253.063 C 1147.271 1235.644 1143.272 1227.220 1134.768 1222.882 C 1125.418 1218.111 1120.791 1217.739 1065.006 1217.270 C 1026.579 1216.947 1012.314 1216.517 1011.771 1215.665 C 1011.364 1215.024 1011.024 1178.253 1011.015 1133.950 C 1011.004 1072.616 1011.286 1053.114 1012.200 1052.200 C 1013.087 1051.313 1022.532 1050.998 1048.450 1050.992 C 1067.728 1050.987 1087.432 1050.533 1092.237 1049.982 C 1119.161 1046.898 1125.802 1036.752 1124.747 1000.317 C 1123.809 967.899 1118.112 960.965 1090.000 958.027 C 1078.441 956.820 837.137 956.882 825.633 958.096 "/></g>
</svg>
